<svg id="svg" version="1.1" xmlns="http://www.w3.org/2000/svg" xmlns:xlink="http://www.w3.org/1999/xlink" width="400" height="418.1818181818182" viewBox="0, 0, 400,418.1818181818182"><g id="svgg"><path id="path0" d="M73.921 19.381 C 68.501 20.568,61.960 24.785,58.419 29.376 C 56.725 31.571,23.251 97.811,21.031 103.359 C 18.789 108.964,18.800 108.724,18.800 150.971 C 18.800 197.669,18.647 196.485,25.700 204.205 C 28.487 207.256,28.496 206.721,25.606 209.923 C 19.079 217.155,18.812 218.692,18.821 249.000 C 18.830 279.720,19.119 281.190,26.729 289.279 L 28.120 290.757 25.680 293.634 C 22.658 297.198,20.618 301.019,19.589 305.044 C 18.375 309.792,18.375 355.808,19.589 360.556 C 22.120 370.451,30.068 378.197,40.400 380.838 C 42.272 381.316,66.155 381.400,200.400 381.400 L 358.200 381.400 361.186 380.462 C 370.767 377.454,377.594 370.774,380.462 361.600 L 381.400 358.600 381.400 332.800 C 381.400 301.741,381.236 300.834,374.284 293.355 L 371.967 290.863 374.519 288.030 C 381.253 280.553,381.600 278.639,381.600 249.000 C 381.600 218.873,380.864 215.345,373.054 208.046 L 372.034 207.092 374.438 204.446 C 377.486 201.091,380.147 195.805,381.006 191.400 C 382.133 185.616,381.694 111.315,380.507 107.000 C 379.312 102.655,344.562 32.918,341.839 29.400 C 338.157 24.644,332.728 21.065,326.956 19.589 C 323.090 18.600,78.404 18.399,73.921 19.381 M324.990 33.198 C 330.368 35.283,329.616 34.042,349.005 72.814 C 366.088 106.975,368.000 111.185,368.000 114.642 L 368.000 116.400 200.142 116.400 L 32.284 116.400 32.519 113.700 C 32.885 109.507,33.265 108.675,51.170 72.913 C 69.172 36.957,69.642 36.142,73.579 34.043 C 77.218 32.104,71.202 32.189,202.200 32.232 L 322.600 32.272 324.990 33.198 M79.517 46.795 C 73.867 48.498,73.009 56.308,78.147 59.253 L 79.800 60.200 171.000 60.322 C 235.655 60.408,262.791 60.317,264.232 60.008 C 271.159 58.524,271.565 48.740,264.780 46.794 C 263.092 46.310,81.123 46.311,79.517 46.795 M289.000 46.825 C 282.628 48.702,282.997 58.173,289.512 59.982 C 291.502 60.535,318.498 60.535,320.488 59.982 C 326.834 58.220,327.424 49.936,321.400 47.156 C 319.637 46.342,291.611 46.057,289.000 46.825 M367.907 159.700 L 367.800 189.400 366.648 191.894 C 364.685 196.145,360.857 199.105,356.214 199.964 C 353.145 200.531,47.737 200.582,44.279 200.015 C 39.631 199.254,35.629 196.264,33.672 192.088 L 32.600 189.800 32.490 159.900 L 32.380 130.000 200.198 130.000 L 368.015 130.000 367.907 159.700 M313.843 145.009 C 298.371 149.257,293.153 167.693,304.099 179.434 C 316.612 192.856,339.600 183.606,339.600 165.148 C 339.600 151.780,326.497 141.534,313.843 145.009 M65.465 151.685 C 63.499 152.211,61.503 154.211,60.885 156.275 C 60.279 158.296,60.233 171.583,60.824 173.711 C 62.423 179.468,69.706 180.591,73.100 175.604 C 74.301 173.839,74.499 157.372,73.348 154.947 C 72.168 152.461,68.398 150.901,65.465 151.685 M100.262 151.770 C 98.347 152.469,96.863 153.811,96.148 155.487 C 95.361 157.336,95.368 173.071,96.158 174.960 C 98.231 179.923,105.706 180.055,108.140 175.171 C 109.401 172.640,109.740 159.013,108.620 155.874 C 107.353 152.319,103.688 150.520,100.262 151.770 M135.074 151.780 C 130.987 153.237,130.420 154.874,130.409 165.237 C 130.400 173.095,130.443 173.555,131.330 175.237 C 133.859 180.032,141.035 179.927,143.344 175.062 C 144.226 173.203,144.315 157.527,143.454 155.468 C 142.125 152.288,138.331 150.618,135.074 151.780 M170.304 151.765 C 165.845 153.370,165.600 154.074,165.600 165.301 C 165.600 173.956,165.633 174.330,166.500 175.604 C 169.308 179.729,174.786 179.847,177.775 175.847 C 179.065 174.122,179.257 157.265,178.015 154.830 C 176.681 152.215,173.056 150.774,170.304 151.765 M205.055 151.787 C 200.787 153.306,200.330 154.692,200.478 165.668 L 200.600 174.664 201.753 176.175 C 204.527 179.809,210.192 179.584,212.800 175.737 C 213.942 174.052,214.567 159.485,213.632 156.354 C 212.499 152.559,208.647 150.508,205.055 151.787 M321.500 157.025 C 330.814 158.933,328.480 173.600,318.862 173.600 C 308.800 173.600,307.289 158.643,317.162 156.783 C 318.559 156.520,319.208 156.556,321.500 157.025 M232.160 159.162 C 227.504 161.277,227.109 168.137,231.488 170.860 L 233.000 171.800 256.000 171.800 C 281.844 171.800,280.567 171.944,282.648 168.799 C 284.952 165.317,283.355 160.297,279.474 158.827 C 277.224 157.974,234.103 158.280,232.160 159.162 M359.687 215.072 C 362.501 216.372,365.311 219.212,366.648 222.106 L 367.800 224.600 367.800 249.009 L 367.800 273.417 366.483 276.092 C 364.981 279.144,362.863 281.192,359.600 282.750 L 357.400 283.800 200.000 283.800 L 42.600 283.800 40.696 282.913 C 38.030 281.670,35.010 278.705,33.706 276.051 L 32.600 273.800 32.600 249.000 L 32.600 224.200 33.521 222.166 C 34.795 219.351,38.092 216.201,41.028 214.993 L 43.400 214.017 200.600 214.108 L 357.800 214.200 359.687 215.072 M315.905 228.409 C 293.764 232.184,292.133 263.378,313.784 268.983 C 331.001 273.440,345.373 255.359,337.299 239.400 C 333.473 231.837,324.086 227.014,315.905 228.409 M64.600 235.952 C 60.972 237.619,60.440 239.244,60.418 248.754 C 60.398 256.950,60.703 258.616,62.590 260.617 C 65.617 263.827,71.482 262.985,73.337 259.075 C 74.500 256.626,74.309 240.183,73.097 238.359 C 71.270 235.610,67.606 234.572,64.600 235.952 M99.360 235.962 C 96.044 237.468,95.818 238.207,95.672 248.000 C 95.532 257.449,95.747 258.886,97.580 260.719 C 101.081 264.220,107.432 262.551,108.757 257.781 C 109.313 255.775,109.333 242.296,108.782 240.312 C 107.611 236.093,103.377 234.138,99.360 235.962 M134.600 235.745 C 133.097 236.443,131.382 238.252,130.825 239.726 C 130.030 241.830,130.293 256.725,131.159 258.631 C 133.623 264.057,141.480 263.831,143.575 258.274 C 144.322 256.295,144.128 240.592,143.337 238.925 C 141.983 236.070,137.450 234.420,134.600 235.745 M169.012 236.113 C 165.750 237.960,165.600 238.513,165.600 248.672 C 165.600 258.929,165.772 259.708,168.418 261.459 C 171.454 263.469,175.627 262.768,177.668 259.906 C 179.038 257.986,179.127 239.982,177.777 238.129 C 175.820 235.446,171.815 234.525,169.012 236.113 M204.138 235.972 C 200.790 237.492,200.400 238.851,200.400 249.000 C 200.400 257.558,200.419 257.763,201.386 259.413 C 203.775 263.489,209.684 263.656,212.679 259.733 L 213.800 258.265 213.932 250.441 C 214.093 240.865,213.929 239.602,212.279 237.724 C 210.045 235.179,207.222 234.572,204.138 235.972 M323.748 241.876 C 330.120 246.349,327.809 256.198,320.098 257.431 C 312.266 258.683,307.244 248.891,312.721 243.050 C 315.481 240.107,320.471 239.575,323.748 241.876 M233.953 242.422 C 228.010 243.388,226.407 250.881,231.354 254.575 C 232.458 255.400,274.636 256.137,278.688 255.402 C 284.313 254.382,285.459 246.060,280.367 243.212 L 278.600 242.224 256.958 242.212 C 245.056 242.205,234.703 242.300,233.953 242.422 M359.276 298.720 C 362.379 299.974,365.623 303.203,366.860 306.269 L 367.800 308.600 367.909 332.198 L 368.019 355.795 367.109 358.374 C 365.360 363.335,361.115 366.777,355.729 367.601 C 350.283 368.435,43.759 367.940,41.594 367.094 C 38.364 365.832,35.429 363.164,33.936 360.131 L 32.600 357.416 32.600 332.608 L 32.600 307.800 33.728 305.600 C 35.668 301.814,38.825 299.213,42.772 298.146 C 44.211 297.757,77.873 297.667,200.800 297.726 L 357.000 297.800 359.276 298.720 M313.739 312.794 C 294.583 317.816,292.799 344.231,311.095 351.936 C 324.386 357.533,339.600 347.292,339.600 332.748 C 339.600 319.185,326.860 309.355,313.739 312.794 M63.835 320.107 C 60.894 321.786,60.600 322.939,60.600 332.800 C 60.600 341.179,60.625 341.444,61.574 343.100 C 64.070 347.458,70.178 347.498,73.120 343.175 C 74.439 341.235,74.341 323.725,73.000 321.927 C 70.977 319.214,66.839 318.392,63.835 320.107 M98.697 320.067 C 95.916 321.721,95.600 323.012,95.600 332.739 C 95.600 342.295,95.789 343.188,98.197 345.025 C 101.419 347.482,106.347 346.481,108.165 343.000 C 109.335 340.758,109.446 324.616,108.306 322.532 C 106.609 319.429,101.830 318.203,98.697 320.067 M134.200 319.761 C 130.922 321.208,130.400 323.016,130.400 332.924 C 130.400 340.682,130.445 341.159,131.330 342.837 C 133.872 347.656,141.036 347.525,143.365 342.617 C 144.472 340.284,144.147 323.725,142.963 322.128 C 140.927 319.383,137.285 318.399,134.200 319.761 M168.642 320.107 C 165.795 321.739,165.600 322.554,165.600 332.835 C 165.600 341.558,165.632 341.929,166.500 343.204 C 169.308 347.329,174.786 347.447,177.775 343.447 C 179.136 341.627,179.255 324.718,177.924 322.350 C 176.205 319.292,171.885 318.247,168.642 320.107 M203.610 320.074 C 200.525 322.170,200.400 322.654,200.400 332.499 C 200.400 339.810,200.510 341.511,201.056 342.662 C 203.392 347.585,210.782 347.596,213.162 342.679 C 214.363 340.198,214.420 325.563,213.238 322.960 C 211.668 319.503,206.660 318.002,203.610 320.074 M323.208 325.100 C 327.282 327.234,329.003 332.611,326.902 336.638 C 322.735 344.623,311.045 342.413,310.122 333.466 C 309.405 326.521,316.844 321.766,323.208 325.100 M232.160 326.762 C 227.504 328.877,227.109 335.737,231.488 338.460 L 233.000 339.400 256.000 339.400 C 281.844 339.400,280.567 339.544,282.648 336.399 C 285.039 332.786,283.218 327.552,279.167 326.390 C 276.331 325.577,234.033 325.912,232.160 326.762 " stroke="none" fill="#050505" fill-rule="evenodd"></path><path id="path1" d="M0.000 209.000 L 0.000 418.000 200.000 418.000 L 400.000 418.000 400.000 209.000 L 400.000 0.000 200.000 0.000 L 0.000 0.000 0.000 209.000 M322.400 18.400 C 331.010 19.258,338.321 23.509,343.078 30.422 C 345.851 34.453,379.521 102.492,380.677 106.400 L 381.800 110.200 381.800 150.600 L 381.800 191.000 380.845 193.800 C 378.925 199.433,376.272 203.813,373.423 206.053 L 372.336 206.908 374.094 208.754 C 377.211 212.029,379.089 215.110,380.946 219.991 C 381.949 222.629,382.502 269.532,381.592 274.796 C 380.748 279.677,377.744 285.485,374.105 289.274 L 372.689 290.747 374.645 292.944 C 377.319 295.948,379.061 298.945,380.546 303.096 L 381.800 306.600 381.916 331.600 C 382.045 359.296,382.044 359.310,379.458 365.245 C 376.206 372.709,369.740 378.326,361.800 380.586 L 358.200 381.611 199.200 381.505 L 40.200 381.400 37.600 380.473 C 26.937 376.671,19.498 367.279,18.433 356.273 C 18.237 354.253,18.122 342.430,18.177 330.000 L 18.276 307.400 19.650 303.400 C 21.102 299.175,22.909 296.100,25.886 292.789 L 27.695 290.777 25.739 288.689 C 20.472 283.064,18.804 278.461,18.389 268.400 C 17.885 256.193,18.276 224.622,18.964 221.994 C 20.426 216.405,22.816 211.951,25.989 208.903 L 27.675 207.283 25.203 204.341 C 23.843 202.724,22.034 199.960,21.183 198.200 C 18.143 191.914,18.311 194.439,18.215 153.600 C 18.122 114.327,18.238 110.882,19.832 105.659 C 20.986 101.873,54.582 34.243,57.217 30.400 C 61.826 23.678,69.136 19.339,77.400 18.420 C 81.529 17.961,317.804 17.941,322.400 18.400 M75.854 33.385 C 70.304 35.368,71.119 34.027,50.980 74.301 C 34.204 107.848,32.814 110.907,32.805 114.300 L 32.800 116.000 200.255 116.000 L 367.710 116.000 367.434 113.304 C 367.074 109.783,367.268 110.200,347.876 71.423 C 330.166 36.009,330.313 36.261,325.955 33.936 L 324.200 33.000 200.800 32.916 C 96.700 32.846,77.158 32.919,75.854 33.385 M266.262 47.056 C 271.219 49.408,271.313 57.094,266.415 59.592 C 263.916 60.867,80.484 60.867,77.985 59.592 C 72.989 57.043,72.887 50.179,77.800 47.144 C 79.558 46.058,263.978 45.972,266.262 47.056 M322.592 47.315 C 327.244 49.950,327.121 57.192,322.382 59.609 C 320.346 60.648,290.359 60.845,287.949 59.835 C 282.567 57.580,282.477 49.806,287.801 47.030 C 290.018 45.874,320.488 46.123,322.592 47.315 M32.890 160.300 L 33.000 190.200 34.185 192.339 C 35.717 195.106,38.647 197.718,41.519 198.878 L 43.800 199.800 200.200 199.800 L 356.600 199.800 358.976 198.843 C 361.822 197.696,364.649 195.024,366.267 191.952 L 367.400 189.800 367.512 160.100 L 367.624 130.400 200.202 130.400 L 32.780 130.400 32.890 160.300 M323.739 144.594 C 333.568 146.677,340.488 156.023,339.884 166.400 C 338.831 184.514,316.886 192.886,304.066 180.066 C 289.040 165.040,302.835 140.165,323.739 144.594 M70.992 151.940 C 71.650 152.324,72.731 153.412,73.394 154.358 L 74.600 156.078 74.468 165.139 C 74.318 175.439,74.131 176.158,71.083 178.135 C 68.057 180.097,63.645 179.245,61.438 176.272 C 60.441 174.930,59.916 157.334,60.808 155.181 C 62.341 151.479,67.431 149.860,70.992 151.940 M104.177 151.236 C 106.192 151.743,108.461 153.900,109.147 155.960 C 109.968 158.425,109.729 173.078,108.835 175.046 C 106.355 180.506,98.579 180.574,95.780 175.160 C 95.100 173.847,94.928 157.168,95.576 155.464 C 96.804 152.232,100.642 150.346,104.177 151.236 M140.844 151.823 C 141.482 152.152,142.498 153.169,143.102 154.081 L 144.200 155.739 144.321 164.648 C 144.426 172.338,144.351 173.739,143.774 174.879 C 140.740 180.880,133.157 180.781,130.619 174.707 C 129.893 172.969,129.721 158.419,130.398 155.982 C 131.520 151.946,136.922 149.795,140.844 151.823 M175.639 151.820 C 177.156 152.605,178.728 154.606,179.008 156.112 C 179.649 159.551,179.025 174.967,178.200 176.068 C 175.037 180.289,169.209 180.269,166.200 176.025 L 165.000 174.332 165.000 165.237 L 165.000 156.143 166.099 154.481 C 168.344 151.088,172.163 150.023,175.639 151.820 M208.760 151.229 C 213.485 152.242,214.507 154.992,214.329 166.217 L 214.200 174.334 213.000 176.025 C 209.789 180.552,203.123 180.198,200.789 175.377 C 199.565 172.849,199.599 157.480,200.834 154.929 C 201.762 153.013,203.134 151.867,205.215 151.270 C 205.977 151.051,206.636 150.856,206.680 150.836 C 206.724 150.816,207.660 150.993,208.760 151.229 M316.600 157.224 C 313.466 158.144,310.818 161.797,310.818 165.200 C 310.818 172.678,320.273 176.125,325.122 170.415 C 330.367 164.237,324.364 154.945,316.600 157.224 M280.316 158.773 C 285.774 161.614,285.292 169.364,279.507 171.781 C 277.224 172.735,234.174 172.710,232.280 171.753 C 226.463 168.814,226.536 160.780,232.400 158.448 C 234.549 157.594,278.625 157.892,280.316 158.773 M43.800 214.555 C 39.234 215.667,35.917 218.279,33.919 222.335 L 33.000 224.200 32.891 248.544 L 32.782 272.889 33.802 275.116 C 35.382 278.567,37.266 280.585,40.302 282.080 L 42.983 283.400 199.671 283.502 L 356.359 283.604 358.578 282.774 C 361.513 281.676,364.842 278.609,366.282 275.676 L 367.400 273.400 367.400 248.800 L 367.400 224.200 366.276 222.065 C 364.197 218.119,360.688 215.424,356.317 214.416 C 353.601 213.789,46.383 213.926,43.800 214.555 M325.287 228.794 C 332.489 231.019,338.415 237.698,339.640 244.973 C 343.177 265.966,318.188 278.672,303.550 263.323 C 288.743 247.798,304.708 222.438,325.287 228.794 M70.574 235.594 C 73.250 236.901,74.062 238.538,74.500 243.514 C 75.815 258.457,72.779 264.841,65.315 262.831 C 60.943 261.654,60.325 259.775,60.478 248.108 L 60.600 238.843 62.000 237.374 C 64.519 234.732,67.528 234.107,70.574 235.594 M105.431 235.559 C 109.159 237.252,109.697 239.140,109.528 249.948 C 109.384 259.221,109.215 259.849,106.317 261.857 C 102.968 264.178,98.630 263.247,96.390 259.726 L 95.165 257.800 95.283 248.536 L 95.400 239.272 96.628 237.736 C 98.928 234.861,102.144 234.065,105.431 235.559 M140.393 235.596 C 141.251 236.034,142.459 237.055,143.077 237.864 L 144.200 239.336 144.321 248.443 C 144.433 256.932,144.386 257.658,143.632 259.137 C 141.048 264.202,134.466 264.481,131.164 259.667 C 130.049 258.041,129.467 243.464,130.382 240.067 C 131.566 235.670,136.350 233.534,140.393 235.596 M175.398 235.599 C 178.852 237.271,178.983 237.722,179.121 248.366 C 179.256 258.786,179.181 259.201,176.784 261.367 C 172.998 264.787,166.630 262.774,165.224 257.711 C 164.606 255.484,164.710 241.752,165.359 239.935 C 166.937 235.515,171.317 233.624,175.398 235.599 M210.415 235.608 C 211.286 236.052,212.494 237.163,213.100 238.077 L 214.200 239.739 214.322 248.498 C 214.438 256.810,214.399 257.349,213.573 259.055 C 211.012 264.346,203.176 264.357,200.777 259.074 C 199.916 257.177,199.622 242.314,200.392 239.627 C 201.539 235.628,206.531 233.626,210.415 235.608 M314.568 242.100 C 310.851 244.613,309.812 248.818,311.914 252.841 C 315.083 258.906,323.893 258.341,326.585 251.898 C 329.547 244.809,320.941 237.791,314.568 242.100 M278.888 242.018 C 284.802 243.660,285.921 251.903,280.649 254.992 L 278.898 256.019 255.471 255.909 L 232.044 255.800 230.588 254.400 C 226.541 250.509,227.315 244.563,232.154 242.365 C 234.076 241.492,275.876 241.181,278.888 242.018 M42.057 298.798 C 38.327 300.143,35.720 302.536,33.946 306.245 L 32.776 308.690 32.888 333.245 L 33.000 357.800 33.937 359.557 C 35.438 362.371,38.151 364.975,40.906 366.248 L 43.400 367.400 200.000 367.400 L 356.600 367.400 358.976 366.443 C 361.822 365.296,364.649 362.624,366.267 359.552 L 367.400 357.400 367.400 332.800 L 367.400 308.200 366.468 306.308 C 364.985 303.297,362.363 300.676,359.520 299.364 L 357.000 298.200 200.600 298.113 C 46.966 298.028,44.162 298.040,42.057 298.798 M323.245 311.997 C 330.746 313.379,338.221 320.854,339.603 328.355 C 343.410 349.019,319.115 362.307,304.133 347.755 C 289.182 333.233,302.568 308.187,323.245 311.997 M71.364 319.935 C 74.181 321.852,74.471 322.926,74.595 331.907 C 74.713 340.414,74.468 342.239,72.945 344.236 C 70.022 348.069,63.212 347.477,61.000 343.199 C 59.893 341.059,60.139 323.702,61.300 321.996 C 63.741 318.409,67.878 317.562,71.364 319.935 M105.600 319.419 C 109.013 321.142,109.600 323.105,109.600 332.800 C 109.600 341.362,109.359 342.722,107.481 344.733 C 104.402 348.031,98.810 347.408,96.265 343.483 L 95.200 341.840 95.200 332.798 L 95.200 323.757 96.373 321.907 C 98.407 318.700,102.168 317.686,105.600 319.419 M139.444 318.990 C 140.936 319.289,143.111 321.308,143.859 323.087 C 144.806 325.341,144.616 340.808,143.618 342.766 C 140.825 348.239,133.273 348.169,130.765 342.646 C 129.915 340.774,129.636 326.326,130.397 323.586 C 131.151 320.874,135.163 318.104,137.600 318.615 C 137.930 318.684,138.760 318.852,139.444 318.990 M176.159 319.929 C 179.109 321.957,179.240 322.544,179.112 333.200 L 179.000 342.600 177.880 344.064 C 174.896 347.964,169.124 347.747,166.200 343.625 L 165.000 341.934 164.871 333.817 C 164.727 324.732,164.959 323.266,166.896 321.050 C 169.331 318.265,173.078 317.811,176.159 319.929 M208.991 318.846 C 213.344 320.055,214.396 322.771,214.396 332.800 C 214.396 340.806,214.121 342.519,212.537 344.402 C 209.356 348.182,202.959 347.459,200.838 343.079 C 199.635 340.593,199.577 325.170,200.762 322.560 C 202.201 319.393,205.537 317.887,208.991 318.846 M315.400 325.063 C 307.156 329.395,309.804 341.000,319.036 341.000 C 327.935 341.000,330.668 329.239,322.716 325.161 C 320.877 324.218,317.104 324.167,315.400 325.063 M280.569 326.561 C 285.617 329.519,285.111 337.207,279.719 339.460 C 277.392 340.432,234.316 340.217,232.125 339.222 C 226.516 336.675,226.691 328.318,232.400 326.048 C 233.019 325.802,242.081 325.641,256.165 325.625 L 278.930 325.600 280.569 326.561 " stroke="none" fill="#f3f3f3" fill-rule="evenodd"></path><path id="path2" d="M139.900 18.300 C 172.955 18.356,227.045 18.356,260.100 18.300 C 293.155 18.244,266.110 18.197,200.000 18.197 C 133.890 18.197,106.845 18.244,139.900 18.300 M339.400 26.400 C 340.483 27.500,341.460 28.400,341.570 28.400 C 341.680 28.400,340.883 27.500,339.800 26.400 C 338.717 25.300,337.740 24.400,337.630 24.400 C 337.520 24.400,338.317 25.300,339.400 26.400 M139.532 32.700 C 173.045 32.756,227.765 32.756,261.132 32.700 C 294.500 32.644,267.080 32.597,200.200 32.597 C 133.320 32.597,106.020 32.644,139.532 32.700 M64.200 47.200 C 63.859 47.860,63.669 48.400,63.779 48.400 C 63.889 48.400,64.259 47.860,64.600 47.200 C 64.941 46.540,65.131 46.000,65.021 46.000 C 64.911 46.000,64.541 46.540,64.200 47.200 M74.093 53.200 C 74.093 53.970,74.175 54.285,74.276 53.900 C 74.376 53.515,74.376 52.885,74.276 52.500 C 74.175 52.115,74.093 52.430,74.093 53.200 M284.800 57.325 C 284.800 57.394,285.385 57.979,286.100 58.625 L 287.400 59.800 286.225 58.500 C 285.130 57.288,284.800 57.016,284.800 57.325 M340.800 57.349 C 340.800 57.781,342.389 60.800,342.616 60.800 C 342.726 60.800,342.430 60.035,341.959 59.100 C 341.032 57.261,340.800 56.911,340.800 57.349 M357.878 59.795 C 358.244 60.562,358.614 61.119,358.701 61.032 C 358.884 60.849,357.670 58.400,357.396 58.400 C 357.295 58.400,357.512 59.028,357.878 59.795 M371.281 86.591 C 371.759 87.576,372.219 88.314,372.303 88.230 C 372.484 88.049,370.868 84.800,370.597 84.800 C 370.494 84.800,370.802 85.606,371.281 86.591 M357.600 90.953 C 357.600 91.382,358.790 93.600,359.021 93.600 C 359.131 93.600,358.923 93.015,358.559 92.300 C 357.817 90.840,357.600 90.536,357.600 90.953 M374.682 93.389 C 375.273 94.593,375.823 95.511,375.905 95.429 C 376.084 95.249,374.067 91.200,373.798 91.200 C 373.694 91.200,374.092 92.185,374.682 93.389 M41.000 93.600 C 40.659 94.260,40.469 94.800,40.579 94.800 C 40.689 94.800,41.059 94.260,41.400 93.600 C 41.741 92.940,41.931 92.400,41.821 92.400 C 41.711 92.400,41.341 92.940,41.000 93.600 M37.781 100.037 C 37.429 100.718,37.212 101.345,37.299 101.432 C 37.386 101.519,37.756 100.962,38.122 100.195 C 38.944 98.470,38.659 98.338,37.781 100.037 M34.581 106.437 C 34.229 107.118,34.012 107.745,34.099 107.832 C 34.186 107.919,34.556 107.362,34.922 106.595 C 35.744 104.870,35.459 104.738,34.581 106.437 M364.834 105.400 C 364.834 105.620,365.178 106.430,365.600 107.200 C 366.022 107.970,366.366 108.420,366.366 108.200 C 366.366 107.980,366.022 107.170,365.600 106.400 C 365.178 105.630,364.834 105.180,364.834 105.400 M381.693 112.800 C 381.693 113.570,381.775 113.885,381.876 113.500 C 381.976 113.115,381.976 112.485,381.876 112.100 C 381.775 111.715,381.693 112.030,381.693 112.800 M32.561 115.200 L 32.600 116.200 200.000 116.201 L 367.400 116.201 200.127 116.100 L 32.853 115.999 32.688 115.100 C 32.544 114.318,32.528 114.331,32.561 115.200 M18.093 116.800 C 18.093 117.570,18.175 117.885,18.276 117.500 C 18.376 117.115,18.376 116.485,18.276 116.100 C 18.175 115.715,18.093 116.030,18.093 116.800 M18.153 131.800 C 18.153 134.440,18.218 135.468,18.297 134.084 C 18.375 132.701,18.374 130.541,18.295 129.284 C 18.216 128.028,18.152 129.160,18.153 131.800 M32.590 159.000 C 32.590 174.840,32.639 181.262,32.700 173.271 C 32.760 165.279,32.760 152.319,32.700 144.471 C 32.639 136.622,32.590 143.160,32.590 159.000 M18.153 149.800 C 18.153 152.440,18.218 153.468,18.297 152.084 C 18.375 150.701,18.374 148.541,18.295 147.284 C 18.216 146.028,18.152 147.160,18.153 149.800 M333.600 150.200 C 334.346 150.970,335.047 151.600,335.157 151.600 C 335.267 151.600,334.746 150.970,334.000 150.200 C 333.254 149.430,332.553 148.800,332.443 148.800 C 332.333 148.800,332.854 149.430,333.600 150.200 M302.323 151.900 C 301.618 152.721,301.090 153.600,301.301 153.600 C 301.383 153.600,301.849 153.060,302.337 152.400 C 303.301 151.096,303.292 150.772,302.323 151.900 M140.400 151.711 C 140.400 151.787,140.985 152.278,141.700 152.801 C 142.504 153.390,142.784 153.487,142.433 153.055 C 141.900 152.399,140.400 151.407,140.400 151.711 M62.175 153.300 L 61.000 154.600 62.300 153.425 C 63.512 152.330,63.784 152.000,63.475 152.000 C 63.406 152.000,62.821 152.585,62.175 153.300 M176.000 152.125 C 176.000 152.194,176.585 152.779,177.300 153.425 L 178.600 154.600 177.425 153.300 C 176.330 152.088,176.000 151.816,176.000 152.125 M109.370 165.200 C 109.370 169.930,109.428 171.865,109.498 169.500 C 109.569 167.135,109.569 163.265,109.498 160.900 C 109.428 158.535,109.370 160.470,109.370 165.200 M130.170 165.200 C 130.170 169.930,130.228 171.865,130.298 169.500 C 130.369 167.135,130.369 163.265,130.298 160.900 C 130.228 158.535,130.170 160.470,130.170 165.200 M164.969 165.000 C 164.970 169.620,165.028 171.455,165.099 169.078 C 165.170 166.701,165.169 162.921,165.098 160.678 C 165.027 158.435,164.969 160.380,164.969 165.000 M74.540 160.400 C 74.540 162.270,74.609 163.035,74.693 162.100 C 74.777 161.165,74.777 159.635,74.693 158.700 C 74.609 157.765,74.540 158.530,74.540 160.400 M214.169 165.200 C 214.169 169.710,214.227 171.555,214.298 169.300 C 214.370 167.045,214.370 163.355,214.298 161.100 C 214.227 158.845,214.169 160.690,214.169 165.200 M313.476 158.900 C 312.230 160.133,312.225 160.149,313.381 159.203 C 314.052 158.655,314.771 158.070,314.980 157.903 C 315.189 157.736,315.231 157.600,315.074 157.600 C 314.917 157.600,314.198 158.185,313.476 158.900 M297.720 164.800 C 297.720 166.010,297.795 166.505,297.887 165.900 C 297.978 165.295,297.978 164.305,297.887 163.700 C 297.795 163.095,297.720 163.590,297.720 164.800 M18.153 168.200 C 18.153 170.840,18.218 171.868,18.297 170.484 C 18.375 169.101,18.374 166.941,18.295 165.684 C 18.216 164.428,18.152 165.560,18.153 168.200 M310.501 165.000 C 310.505 165.880,310.587 166.193,310.683 165.695 C 310.779 165.198,310.775 164.478,310.675 164.095 C 310.575 163.713,310.496 164.120,310.501 165.000 M244.272 172.300 C 250.471 172.362,260.731 172.362,267.072 172.300 C 273.412 172.238,268.340 172.187,255.800 172.187 C 243.260 172.187,238.072 172.238,244.272 172.300 M131.200 176.125 C 131.200 176.194,131.785 176.779,132.500 177.425 L 133.800 178.600 132.625 177.300 C 131.530 176.088,131.200 175.816,131.200 176.125 M302.800 178.925 C 302.800 178.994,303.385 179.579,304.100 180.225 L 305.400 181.400 304.225 180.100 C 303.130 178.888,302.800 178.616,302.800 178.925 M18.128 184.000 C 18.128 185.430,18.201 186.015,18.289 185.300 C 18.378 184.585,18.378 183.415,18.289 182.700 C 18.201 181.985,18.128 182.570,18.128 184.000 M317.907 186.290 C 318.626 186.379,319.706 186.377,320.307 186.286 C 320.908 186.195,320.320 186.122,319.000 186.124 C 317.680 186.126,317.188 186.201,317.907 186.290 M381.693 188.800 C 381.693 189.570,381.775 189.885,381.876 189.500 C 381.976 189.115,381.976 188.485,381.876 188.100 C 381.775 187.715,381.693 188.030,381.693 188.800 M35.600 194.925 C 35.600 194.994,36.185 195.579,36.900 196.225 L 38.200 197.400 37.025 196.100 C 35.930 194.888,35.600 194.616,35.600 194.925 M377.453 200.900 L 376.733 202.200 377.558 201.200 C 378.289 200.313,378.614 199.600,378.286 199.600 C 378.224 199.600,377.849 200.185,377.453 200.900 M26.400 205.800 C 27.146 206.570,27.847 207.200,27.957 207.200 C 28.067 207.200,27.546 206.570,26.800 205.800 C 26.054 205.030,25.353 204.400,25.243 204.400 C 25.133 204.400,25.654 205.030,26.400 205.800 M381.693 225.200 C 381.693 225.970,381.775 226.285,381.876 225.900 C 381.976 225.515,381.976 224.885,381.876 224.500 C 381.775 224.115,381.693 224.430,381.693 225.200 M32.587 249.000 C 32.587 261.540,32.638 266.612,32.700 260.272 C 32.762 253.931,32.762 243.671,32.700 237.472 C 32.638 231.272,32.587 236.460,32.587 249.000 M201.978 237.100 L 200.600 238.600 202.100 237.222 C 203.496 235.938,203.784 235.600,203.478 235.600 C 203.412 235.600,202.737 236.275,201.978 237.100 M18.151 240.800 C 18.151 243.330,18.216 244.365,18.296 243.100 C 18.375 241.835,18.375 239.765,18.296 238.500 C 18.216 237.235,18.151 238.270,18.151 240.800 M214.170 249.000 C 214.171 253.840,214.229 255.765,214.299 253.278 C 214.369 250.791,214.369 246.831,214.298 244.478 C 214.228 242.125,214.170 244.160,214.170 249.000 M109.369 249.000 C 109.370 253.620,109.428 255.455,109.499 253.078 C 109.570 250.701,109.569 246.921,109.498 244.678 C 109.427 242.435,109.369 244.380,109.369 249.000 M130.169 249.000 C 130.170 253.620,130.228 255.455,130.299 253.078 C 130.370 250.701,130.369 246.921,130.298 244.678 C 130.227 242.435,130.169 244.380,130.169 249.000 M164.968 249.000 C 164.968 253.400,165.026 255.255,165.098 253.121 C 165.170 250.988,165.170 247.388,165.099 245.121 C 165.027 242.855,164.968 244.600,164.968 249.000 M244.728 241.900 C 250.959 241.962,261.039 241.962,267.128 241.900 C 273.218 241.838,268.120 241.787,255.800 241.787 C 243.480 241.787,238.498 241.838,244.728 241.900 M323.600 242.125 C 323.600 242.194,324.185 242.779,324.900 243.425 L 326.200 244.600 325.025 243.300 C 323.930 242.088,323.600 241.816,323.600 242.125 M280.800 242.925 C 280.800 242.994,281.385 243.579,282.100 244.225 L 283.400 245.400 282.225 244.100 C 281.130 242.888,280.800 242.616,280.800 242.925 M74.553 249.800 C 74.553 252.440,74.618 253.468,74.697 252.084 C 74.775 250.701,74.774 248.541,74.695 247.284 C 74.616 246.028,74.552 247.160,74.553 249.800 M297.724 249.000 C 297.726 250.320,297.801 250.812,297.890 250.093 C 297.979 249.374,297.977 248.294,297.886 247.693 C 297.795 247.092,297.722 247.680,297.724 249.000 M310.501 249.000 C 310.505 249.880,310.587 250.193,310.683 249.695 C 310.779 249.198,310.775 248.478,310.675 248.095 C 310.575 247.713,310.496 248.120,310.501 249.000 M18.153 259.000 C 18.153 261.640,18.218 262.668,18.297 261.284 C 18.375 259.901,18.374 257.741,18.295 256.484 C 18.216 255.228,18.152 256.360,18.153 259.000 M63.544 261.976 C 64.064 262.429,64.679 262.800,64.911 262.800 C 65.403 262.800,65.379 262.780,63.800 261.855 L 62.600 261.153 63.544 261.976 M70.600 262.027 C 69.940 262.450,69.605 262.797,69.856 262.798 C 70.106 262.799,70.736 262.446,71.256 262.013 C 72.445 261.023,72.159 261.029,70.600 262.027 M175.400 262.027 C 174.740 262.450,174.405 262.797,174.656 262.798 C 174.906 262.799,175.536 262.446,176.056 262.013 C 177.245 261.023,176.959 261.029,175.400 262.027 M333.385 264.100 L 331.400 266.200 333.500 264.215 C 334.655 263.123,335.600 262.178,335.600 262.115 C 335.600 261.817,335.229 262.149,333.385 264.100 M66.705 263.083 C 67.202 263.179,67.922 263.175,68.305 263.075 C 68.687 262.975,68.280 262.896,67.400 262.901 C 66.520 262.905,66.207 262.987,66.705 263.083 M101.500 263.082 C 101.995 263.178,102.805 263.178,103.300 263.082 C 103.795 262.987,103.390 262.909,102.400 262.909 C 101.410 262.909,101.005 262.987,101.500 263.082 M136.705 263.083 C 137.202 263.179,137.922 263.175,138.305 263.075 C 138.687 262.975,138.280 262.896,137.400 262.901 C 136.520 262.905,136.207 262.987,136.705 263.083 M171.505 263.083 C 172.002 263.179,172.722 263.175,173.105 263.075 C 173.487 262.975,173.080 262.896,172.200 262.901 C 171.320 262.905,171.007 262.987,171.505 263.083 M206.305 263.083 C 206.802 263.179,207.522 263.175,207.905 263.075 C 208.287 262.975,207.880 262.896,207.000 262.901 C 206.120 262.905,205.807 262.987,206.305 263.083 M308.800 267.396 C 308.800 267.670,311.249 268.884,311.432 268.701 C 311.519 268.614,310.962 268.244,310.195 267.878 C 309.428 267.512,308.800 267.295,308.800 267.396 M363.381 279.700 L 361.800 281.400 363.500 279.819 C 365.081 278.348,365.384 278.000,365.081 278.000 C 365.016 278.000,364.251 278.765,363.381 279.700 M122.733 283.900 C 165.485 283.956,235.325 283.956,277.933 283.900 C 320.540 283.844,285.560 283.798,200.200 283.798 C 114.840 283.798,79.980 283.844,122.733 283.900 M373.794 289.207 L 372.225 290.813 374.006 292.507 L 375.787 294.200 374.212 292.500 L 372.638 290.800 374.200 289.200 C 375.059 288.320,375.672 287.600,375.562 287.600 C 375.452 287.600,374.656 288.323,373.794 289.207 M26.181 292.500 L 24.600 294.200 26.300 292.619 C 27.235 291.749,28.000 290.984,28.000 290.919 C 28.000 290.616,27.652 290.919,26.181 292.500 M362.400 300.925 C 362.400 300.994,362.985 301.579,363.700 302.225 L 365.000 303.400 363.825 302.100 C 362.730 300.888,362.400 300.616,362.400 300.925 M381.693 309.200 C 381.693 309.970,381.775 310.285,381.876 309.900 C 381.976 309.515,381.976 308.885,381.876 308.500 C 381.775 308.115,381.693 308.430,381.693 309.200 M32.587 332.800 C 32.587 345.230,32.638 350.315,32.700 344.100 C 32.762 337.885,32.762 327.715,32.700 321.500 C 32.638 315.285,32.587 320.370,32.587 332.800 M18.140 314.800 C 18.140 316.670,18.209 317.435,18.293 316.500 C 18.377 315.565,18.377 314.035,18.293 313.100 C 18.209 312.165,18.140 312.930,18.140 314.800 M97.722 320.229 L 96.600 321.258 97.900 320.354 C 98.615 319.857,99.200 319.393,99.200 319.325 C 99.200 319.009,98.758 319.280,97.722 320.229 M62.175 320.900 L 61.000 322.200 62.300 321.025 C 63.512 319.930,63.784 319.600,63.475 319.600 C 63.406 319.600,62.821 320.185,62.175 320.900 M318.305 324.283 C 318.802 324.379,319.522 324.375,319.905 324.275 C 320.287 324.175,319.880 324.096,319.000 324.101 C 318.120 324.105,317.807 324.187,318.305 324.283 M109.370 332.800 C 109.370 337.530,109.428 339.465,109.498 337.100 C 109.569 334.735,109.569 330.865,109.498 328.500 C 109.428 326.135,109.370 328.070,109.370 332.800 M130.170 332.800 C 130.170 337.530,130.228 339.465,130.298 337.100 C 130.369 334.735,130.369 330.865,130.298 328.500 C 130.228 326.135,130.170 328.070,130.170 332.800 M74.493 326.000 C 74.493 326.770,74.575 327.085,74.676 326.700 C 74.776 326.315,74.776 325.685,74.676 325.300 C 74.575 324.915,74.493 325.230,74.493 326.000 M164.969 332.800 C 164.969 337.310,165.027 339.155,165.098 336.900 C 165.170 334.645,165.170 330.955,165.098 328.700 C 165.027 326.445,164.969 328.290,164.969 332.800 M214.169 332.800 C 214.169 337.310,214.227 339.155,214.298 336.900 C 214.370 334.645,214.370 330.955,214.298 328.700 C 214.227 326.445,214.169 328.290,214.169 332.800 M312.575 326.900 L 311.400 328.200 312.700 327.025 C 313.415 326.379,314.000 325.794,314.000 325.725 C 314.000 325.416,313.670 325.688,312.575 326.900 M18.153 331.800 C 18.153 334.440,18.218 335.468,18.297 334.084 C 18.375 332.701,18.374 330.541,18.295 329.284 C 18.216 328.028,18.152 329.160,18.153 331.800 M297.709 332.800 C 297.709 333.790,297.787 334.195,297.882 333.700 C 297.978 333.205,297.978 332.395,297.882 331.900 C 297.787 331.405,297.709 331.810,297.709 332.800 M74.524 338.200 C 74.526 339.520,74.601 340.012,74.690 339.293 C 74.779 338.574,74.777 337.494,74.686 336.893 C 74.595 336.292,74.522 336.880,74.524 338.200 M280.200 338.827 C 279.540 339.250,279.205 339.597,279.456 339.598 C 279.706 339.599,280.336 339.246,280.856 338.813 C 282.045 337.823,281.759 337.829,280.200 338.827 M234.305 339.883 C 234.802 339.979,235.522 339.975,235.905 339.875 C 236.287 339.775,235.880 339.696,235.000 339.701 C 234.120 339.705,233.807 339.787,234.305 339.883 M247.700 339.896 C 248.965 339.975,251.035 339.975,252.300 339.896 C 253.565 339.816,252.530 339.751,250.000 339.751 C 247.470 339.751,246.435 339.816,247.700 339.896 M265.916 339.897 C 267.299 339.975,269.459 339.974,270.716 339.895 C 271.972 339.816,270.840 339.752,268.200 339.753 C 265.560 339.753,264.532 339.818,265.916 339.897 M106.975 344.900 L 105.800 346.200 107.100 345.025 C 108.312 343.930,108.584 343.600,108.275 343.600 C 108.206 343.600,107.621 344.185,106.975 344.900 M211.775 344.900 L 210.600 346.200 211.900 345.025 C 212.615 344.379,213.200 343.794,213.200 343.725 C 213.200 343.416,212.870 343.688,211.775 344.900 M18.151 349.600 C 18.151 352.130,18.216 353.165,18.296 351.900 C 18.375 350.635,18.375 348.565,18.296 347.300 C 18.216 346.035,18.151 347.070,18.151 349.600 M303.800 347.600 C 304.659 348.480,305.452 349.200,305.562 349.200 C 305.672 349.200,305.059 348.480,304.200 347.600 C 303.341 346.720,302.548 346.000,302.438 346.000 C 302.328 346.000,302.941 346.720,303.800 347.600 M317.900 353.889 C 318.615 353.978,319.785 353.978,320.500 353.889 C 321.215 353.801,320.630 353.728,319.200 353.728 C 317.770 353.728,317.185 353.801,317.900 353.889 M36.400 363.400 C 37.146 364.170,37.847 364.800,37.957 364.800 C 38.067 364.800,37.546 364.170,36.800 363.400 C 36.054 362.630,35.353 362.000,35.243 362.000 C 35.133 362.000,35.654 362.630,36.400 363.400 M373.385 373.700 L 371.400 375.800 373.500 373.815 C 374.655 372.723,375.600 371.778,375.600 371.715 C 375.600 371.417,375.229 371.749,373.385 373.700 M366.000 378.800 C 365.230 379.222,364.744 379.574,364.920 379.583 C 365.344 379.605,367.600 378.432,367.600 378.190 C 367.600 377.928,367.577 377.937,366.000 378.800 " stroke="none" fill="#959595" fill-rule="evenodd"></path><path id="path3" d="M139.132 18.700 C 172.865 18.756,227.945 18.756,261.532 18.700 C 295.120 18.644,267.520 18.597,200.200 18.597 C 132.880 18.597,105.400 18.644,139.132 18.700 M83.900 32.296 C 85.275 32.374,87.525 32.374,88.900 32.296 C 90.275 32.218,89.150 32.154,86.400 32.154 C 83.650 32.154,82.525 32.218,83.900 32.296 M101.900 32.296 C 103.275 32.374,105.525 32.374,106.900 32.296 C 108.275 32.218,107.150 32.154,104.400 32.154 C 101.650 32.154,100.525 32.218,101.900 32.296 M120.300 32.296 C 121.675 32.374,123.925 32.374,125.300 32.296 C 126.675 32.218,125.550 32.154,122.800 32.154 C 120.050 32.154,118.925 32.218,120.300 32.296 M138.300 32.296 C 139.675 32.374,141.925 32.374,143.300 32.296 C 144.675 32.218,143.550 32.154,140.800 32.154 C 138.050 32.154,136.925 32.218,138.300 32.296 M156.700 32.296 C 158.075 32.374,160.325 32.374,161.700 32.296 C 163.075 32.218,161.950 32.154,159.200 32.154 C 156.450 32.154,155.325 32.218,156.700 32.296 M174.700 32.296 C 176.075 32.374,178.325 32.374,179.700 32.296 C 181.075 32.218,179.950 32.154,177.200 32.154 C 174.450 32.154,173.325 32.218,174.700 32.296 M193.100 32.296 C 194.475 32.374,196.725 32.374,198.100 32.296 C 199.475 32.218,198.350 32.154,195.600 32.154 C 192.850 32.154,191.725 32.218,193.100 32.296 M211.100 32.296 C 212.475 32.374,214.725 32.374,216.100 32.296 C 217.475 32.218,216.350 32.154,213.600 32.154 C 210.850 32.154,209.725 32.218,211.100 32.296 M229.516 32.297 C 230.899 32.375,233.059 32.374,234.316 32.295 C 235.572 32.216,234.440 32.152,231.800 32.153 C 229.160 32.153,228.132 32.218,229.516 32.297 M247.500 32.296 C 248.875 32.374,251.125 32.374,252.500 32.296 C 253.875 32.218,252.750 32.154,250.000 32.154 C 247.250 32.154,246.125 32.218,247.500 32.296 M265.916 32.297 C 267.299 32.375,269.459 32.374,270.716 32.295 C 271.972 32.216,270.840 32.152,268.200 32.153 C 265.560 32.153,264.532 32.218,265.916 32.297 M283.900 32.296 C 285.275 32.374,287.525 32.374,288.900 32.296 C 290.275 32.218,289.150 32.154,286.400 32.154 C 283.650 32.154,282.525 32.218,283.900 32.296 M301.900 32.296 C 303.275 32.374,305.525 32.374,306.900 32.296 C 308.275 32.218,307.150 32.154,304.400 32.154 C 301.650 32.154,300.525 32.218,301.900 32.296 M318.500 32.276 C 318.885 32.376,319.515 32.376,319.900 32.276 C 320.285 32.175,319.970 32.093,319.200 32.093 C 318.430 32.093,318.115 32.175,318.500 32.276 M266.400 47.325 C 266.400 47.394,266.985 47.979,267.700 48.625 L 269.000 49.800 267.825 48.500 C 266.730 47.288,266.400 47.016,266.400 47.325 M325.701 53.400 C 325.705 54.280,325.787 54.593,325.883 54.095 C 325.979 53.598,325.975 52.878,325.875 52.495 C 325.775 52.113,325.696 52.520,325.701 53.400 M18.592 150.800 C 18.592 171.370,18.640 179.785,18.700 169.500 C 18.759 159.215,18.759 142.385,18.700 132.100 C 18.640 121.815,18.592 130.230,18.592 150.800 M381.753 122.600 C 381.753 125.240,381.818 126.268,381.897 124.884 C 381.975 123.501,381.974 121.341,381.895 120.084 C 381.816 118.828,381.752 119.960,381.753 122.600 M33.300 130.287 C 33.905 130.378,34.895 130.378,35.500 130.287 C 36.105 130.195,35.610 130.120,34.400 130.120 C 33.190 130.120,32.695 130.195,33.300 130.287 M47.700 130.296 C 48.965 130.375,51.035 130.375,52.300 130.296 C 53.565 130.216,52.530 130.151,50.000 130.151 C 47.470 130.151,46.435 130.216,47.700 130.296 M65.916 130.297 C 67.299 130.375,69.459 130.374,70.716 130.295 C 71.972 130.216,70.840 130.152,68.200 130.153 C 65.560 130.153,64.532 130.218,65.916 130.297 M84.100 130.296 C 85.365 130.375,87.435 130.375,88.700 130.296 C 89.965 130.216,88.930 130.151,86.400 130.151 C 83.870 130.151,82.835 130.216,84.100 130.296 M102.316 130.297 C 103.699 130.375,105.859 130.374,107.116 130.295 C 108.372 130.216,107.240 130.152,104.600 130.153 C 101.960 130.153,100.932 130.218,102.316 130.297 M120.316 130.297 C 121.699 130.375,123.859 130.374,125.116 130.295 C 126.372 130.216,125.240 130.152,122.600 130.153 C 119.960 130.153,118.932 130.218,120.316 130.297 M138.716 130.297 C 140.099 130.375,142.259 130.374,143.516 130.295 C 144.772 130.216,143.640 130.152,141.000 130.153 C 138.360 130.153,137.332 130.218,138.716 130.297 M156.716 130.297 C 158.099 130.375,160.259 130.374,161.516 130.295 C 162.772 130.216,161.640 130.152,159.000 130.153 C 156.360 130.153,155.332 130.218,156.716 130.297 M175.116 130.297 C 176.499 130.375,178.659 130.374,179.916 130.295 C 181.172 130.216,180.040 130.152,177.400 130.153 C 174.760 130.153,173.732 130.218,175.116 130.297 M193.116 130.297 C 194.499 130.375,196.659 130.374,197.916 130.295 C 199.172 130.216,198.040 130.152,195.400 130.153 C 192.760 130.153,191.732 130.218,193.116 130.297 M211.300 130.296 C 212.565 130.375,214.635 130.375,215.900 130.296 C 217.165 130.216,216.130 130.151,213.600 130.151 C 211.070 130.151,210.035 130.216,211.300 130.296 M229.516 130.297 C 230.899 130.375,233.059 130.374,234.316 130.295 C 235.572 130.216,234.440 130.152,231.800 130.153 C 229.160 130.153,228.132 130.218,229.516 130.297 M247.700 130.296 C 248.965 130.375,251.035 130.375,252.300 130.296 C 253.565 130.216,252.530 130.151,250.000 130.151 C 247.470 130.151,246.435 130.216,247.700 130.296 M265.916 130.297 C 267.299 130.375,269.459 130.374,270.716 130.295 C 271.972 130.216,270.840 130.152,268.200 130.153 C 265.560 130.153,264.532 130.218,265.916 130.297 M284.100 130.296 C 285.365 130.375,287.435 130.375,288.700 130.296 C 289.965 130.216,288.930 130.151,286.400 130.151 C 283.870 130.151,282.835 130.216,284.100 130.296 M302.316 130.297 C 303.699 130.375,305.859 130.374,307.116 130.295 C 308.372 130.216,307.240 130.152,304.600 130.153 C 301.960 130.153,300.932 130.218,302.316 130.297 M320.316 130.297 C 321.699 130.375,323.859 130.374,325.116 130.295 C 326.372 130.216,325.240 130.152,322.600 130.153 C 319.960 130.153,318.932 130.218,320.316 130.297 M338.716 130.297 C 340.099 130.375,342.259 130.374,343.516 130.295 C 344.772 130.216,343.640 130.152,341.000 130.153 C 338.360 130.153,337.332 130.218,338.716 130.297 M356.716 130.297 C 358.099 130.375,360.259 130.374,361.516 130.295 C 362.772 130.216,361.640 130.152,359.000 130.153 C 356.360 130.153,355.332 130.218,356.716 130.297 M381.751 140.800 C 381.751 143.330,381.816 144.365,381.896 143.100 C 381.975 141.835,381.975 139.765,381.896 138.500 C 381.816 137.235,381.751 138.270,381.751 140.800 M333.400 150.400 C 334.259 151.280,335.052 152.000,335.162 152.000 C 335.272 152.000,334.659 151.280,333.800 150.400 C 332.941 149.520,332.148 148.800,332.038 148.800 C 331.928 148.800,332.541 149.520,333.400 150.400 M381.753 159.000 C 381.753 161.640,381.818 162.668,381.897 161.284 C 381.975 159.901,381.974 157.741,381.895 156.484 C 381.816 155.228,381.752 156.360,381.753 159.000 M74.169 165.000 C 74.170 169.620,74.228 171.455,74.299 169.078 C 74.370 166.701,74.369 162.921,74.298 160.678 C 74.227 158.435,74.169 160.380,74.169 165.000 M165.370 165.200 C 165.370 169.930,165.428 171.865,165.498 169.500 C 165.569 167.135,165.569 163.265,165.498 160.900 C 165.428 158.535,165.370 160.470,165.370 165.200 M178.970 165.200 C 178.970 169.930,179.028 171.865,179.098 169.500 C 179.169 167.135,179.169 163.265,179.098 160.900 C 179.028 158.535,178.970 160.470,178.970 165.200 M200.168 165.000 C 200.168 169.400,200.226 171.255,200.298 169.121 C 200.370 166.988,200.370 163.388,200.299 161.121 C 200.227 158.855,200.168 160.600,200.168 165.000 M95.337 160.600 C 95.339 162.360,95.409 163.030,95.493 162.089 C 95.578 161.149,95.577 159.709,95.491 158.889 C 95.405 158.070,95.336 158.840,95.337 160.600 M245.328 158.300 C 251.449 158.362,261.349 158.362,267.328 158.300 C 273.308 158.237,268.300 158.187,256.200 158.187 C 244.100 158.187,239.208 158.238,245.328 158.300 M298.137 165.000 C 298.139 166.760,298.209 167.430,298.293 166.489 C 298.378 165.549,298.377 164.109,298.291 163.289 C 298.205 162.470,298.136 163.240,298.137 165.000 M339.720 165.200 C 339.720 166.410,339.795 166.905,339.887 166.300 C 339.978 165.695,339.978 164.705,339.887 164.100 C 339.795 163.495,339.720 163.990,339.720 165.200 M327.301 165.000 C 327.305 165.880,327.387 166.193,327.483 165.695 C 327.579 165.198,327.575 164.478,327.475 164.095 C 327.375 163.713,327.296 164.120,327.301 165.000 M228.093 165.200 C 228.093 165.970,228.175 166.285,228.276 165.900 C 228.376 165.515,228.376 164.885,228.276 164.500 C 228.175 164.115,228.093 164.430,228.093 165.200 M381.751 177.200 C 381.751 179.730,381.816 180.765,381.896 179.500 C 381.975 178.235,381.975 176.165,381.896 174.900 C 381.816 173.635,381.751 174.670,381.751 177.200 M304.000 179.800 C 304.746 180.570,305.447 181.200,305.557 181.200 C 305.667 181.200,305.146 180.570,304.400 179.800 C 303.654 179.030,302.953 178.400,302.843 178.400 C 302.733 178.400,303.254 179.030,304.000 179.800 M316.100 185.876 C 316.485 185.976,317.115 185.976,317.500 185.876 C 317.885 185.775,317.570 185.693,316.800 185.693 C 316.030 185.693,315.715 185.775,316.100 185.876 M122.933 200.300 C 165.575 200.356,235.235 200.356,277.733 200.300 C 320.230 200.244,285.340 200.198,200.200 200.198 C 115.060 200.198,80.290 200.244,122.933 200.300 M26.400 205.400 C 27.146 206.170,27.847 206.800,27.957 206.800 C 28.067 206.800,27.546 206.170,26.800 205.400 C 26.054 204.630,25.353 204.000,25.243 204.000 C 25.133 204.000,25.654 204.630,26.400 205.400 M372.975 206.100 L 371.800 207.400 373.100 206.225 C 373.815 205.579,374.400 204.994,374.400 204.925 C 374.400 204.616,374.070 204.888,372.975 206.100 M26.575 208.500 L 25.400 209.800 26.700 208.625 C 27.912 207.530,28.184 207.200,27.875 207.200 C 27.806 207.200,27.221 207.785,26.575 208.500 M18.587 249.000 C 18.587 261.760,18.638 267.038,18.700 260.729 C 18.762 254.419,18.762 243.979,18.700 237.529 C 18.638 231.078,18.587 236.240,18.587 249.000 M381.750 231.800 C 381.751 234.220,381.816 235.158,381.896 233.885 C 381.976 232.612,381.975 230.632,381.894 229.485 C 381.814 228.338,381.749 229.380,381.750 231.800 M303.775 234.500 L 302.600 235.800 303.900 234.625 C 304.615 233.979,305.200 233.394,305.200 233.325 C 305.200 233.016,304.870 233.288,303.775 234.500 M178.970 249.000 C 178.971 253.840,179.029 255.765,179.099 253.278 C 179.169 250.791,179.169 246.831,179.098 244.478 C 179.028 242.125,178.970 244.160,178.970 249.000 M74.169 248.800 C 74.169 253.310,74.227 255.155,74.298 252.900 C 74.370 250.645,74.370 246.955,74.298 244.700 C 74.227 242.445,74.169 244.290,74.169 248.800 M165.369 249.000 C 165.370 253.620,165.428 255.455,165.499 253.078 C 165.570 250.701,165.569 246.921,165.498 244.678 C 165.427 242.435,165.369 244.380,165.369 249.000 M200.168 249.000 C 200.168 253.400,200.226 255.255,200.298 253.121 C 200.370 250.988,200.370 247.388,200.299 245.121 C 200.227 242.855,200.168 244.600,200.168 249.000 M238.716 242.297 C 240.099 242.375,242.259 242.374,243.516 242.295 C 244.772 242.216,243.640 242.152,241.000 242.153 C 238.360 242.153,237.332 242.218,238.716 242.297 M256.716 242.297 C 258.099 242.375,260.259 242.374,261.516 242.295 C 262.772 242.216,261.640 242.152,259.000 242.153 C 256.360 242.153,255.332 242.218,256.716 242.297 M273.900 242.293 C 274.835 242.377,276.365 242.377,277.300 242.293 C 278.235 242.209,277.470 242.140,275.600 242.140 C 273.730 242.140,272.965 242.209,273.900 242.293 M95.354 250.000 C 95.354 252.750,95.418 253.875,95.496 252.500 C 95.574 251.125,95.574 248.875,95.496 247.500 C 95.418 246.125,95.354 247.250,95.354 250.000 M381.751 250.000 C 381.751 252.530,381.816 253.565,381.896 252.300 C 381.975 251.035,381.975 248.965,381.896 247.700 C 381.816 246.435,381.751 247.470,381.751 250.000 M298.137 249.000 C 298.139 250.760,298.209 251.430,298.293 250.489 C 298.378 249.549,298.377 248.109,298.291 247.289 C 298.205 246.470,298.136 247.240,298.137 249.000 M339.714 249.000 C 339.717 250.100,339.795 250.503,339.887 249.895 C 339.979 249.286,339.977 248.386,339.882 247.895 C 339.787 247.403,339.711 247.900,339.714 249.000 M327.301 249.000 C 327.305 249.880,327.387 250.193,327.483 249.695 C 327.579 249.198,327.575 248.478,327.475 248.095 C 327.375 247.713,327.296 248.120,327.301 249.000 M311.600 253.725 C 311.600 253.794,312.185 254.379,312.900 255.025 L 314.200 256.200 313.025 254.900 C 311.930 253.688,311.600 253.416,311.600 253.725 M244.900 255.900 C 251.005 255.962,260.995 255.962,267.100 255.900 C 273.205 255.838,268.210 255.787,256.000 255.787 C 243.790 255.787,238.795 255.838,244.900 255.900 M317.900 257.482 C 318.395 257.578,319.205 257.578,319.700 257.482 C 320.195 257.387,319.790 257.309,318.800 257.309 C 317.810 257.309,317.405 257.387,317.900 257.482 M381.740 266.800 C 381.740 268.670,381.809 269.435,381.893 268.500 C 381.977 267.565,381.977 266.035,381.893 265.100 C 381.809 264.165,381.740 264.930,381.740 266.800 M317.700 269.887 C 318.305 269.978,319.295 269.978,319.900 269.887 C 320.505 269.795,320.010 269.720,318.800 269.720 C 317.590 269.720,317.095 269.795,317.700 269.887 M363.775 279.700 L 362.600 281.000 363.900 279.825 C 364.615 279.179,365.200 278.594,365.200 278.525 C 365.200 278.216,364.870 278.488,363.775 279.700 M373.781 288.900 L 372.200 290.600 373.900 289.019 C 375.481 287.548,375.784 287.200,375.481 287.200 C 375.416 287.200,374.651 287.965,373.781 288.900 M373.583 292.500 C 374.564 293.545,375.419 294.400,375.483 294.400 C 375.784 294.400,375.466 294.041,373.700 292.383 L 371.800 290.600 373.583 292.500 M46.900 297.897 C 48.385 297.974,50.815 297.974,52.300 297.897 C 53.785 297.820,52.570 297.757,49.600 297.757 C 46.630 297.757,45.415 297.820,46.900 297.897 M65.916 297.897 C 67.299 297.975,69.459 297.974,70.716 297.895 C 71.972 297.816,70.840 297.752,68.200 297.753 C 65.560 297.753,64.532 297.818,65.916 297.897 M83.900 297.896 C 85.275 297.974,87.525 297.974,88.900 297.896 C 90.275 297.818,89.150 297.754,86.400 297.754 C 83.650 297.754,82.525 297.818,83.900 297.896 M102.316 297.897 C 103.699 297.975,105.859 297.974,107.116 297.895 C 108.372 297.816,107.240 297.752,104.600 297.753 C 101.960 297.753,100.932 297.818,102.316 297.897 M120.316 297.897 C 121.699 297.975,123.859 297.974,125.116 297.895 C 126.372 297.816,125.240 297.752,122.600 297.753 C 119.960 297.753,118.932 297.818,120.316 297.897 M138.716 297.897 C 140.099 297.975,142.259 297.974,143.516 297.895 C 144.772 297.816,143.640 297.752,141.000 297.753 C 138.360 297.753,137.332 297.818,138.716 297.897 M156.716 297.897 C 158.099 297.975,160.259 297.974,161.516 297.895 C 162.772 297.816,161.640 297.752,159.000 297.753 C 156.360 297.753,155.332 297.818,156.716 297.897 M175.116 297.897 C 176.499 297.975,178.659 297.974,179.916 297.895 C 181.172 297.816,180.040 297.752,177.400 297.753 C 174.760 297.753,173.732 297.818,175.116 297.897 M193.116 297.897 C 194.499 297.975,196.659 297.974,197.916 297.895 C 199.172 297.816,198.040 297.752,195.400 297.753 C 192.760 297.753,191.732 297.818,193.116 297.897 M211.100 297.896 C 212.475 297.974,214.725 297.974,216.100 297.896 C 217.475 297.818,216.350 297.754,213.600 297.754 C 210.850 297.754,209.725 297.818,211.100 297.896 M229.516 297.897 C 230.899 297.975,233.059 297.974,234.316 297.895 C 235.572 297.816,234.440 297.752,231.800 297.753 C 229.160 297.753,228.132 297.818,229.516 297.897 M247.500 297.896 C 248.875 297.974,251.125 297.974,252.500 297.896 C 253.875 297.818,252.750 297.754,250.000 297.754 C 247.250 297.754,246.125 297.818,247.500 297.896 M265.916 297.897 C 267.299 297.975,269.459 297.974,270.716 297.895 C 271.972 297.816,270.840 297.752,268.200 297.753 C 265.560 297.753,264.532 297.818,265.916 297.897 M283.900 297.896 C 285.275 297.974,287.525 297.974,288.900 297.896 C 290.275 297.818,289.150 297.754,286.400 297.754 C 283.650 297.754,282.525 297.818,283.900 297.896 M302.316 297.897 C 303.699 297.975,305.859 297.974,307.116 297.895 C 308.372 297.816,307.240 297.752,304.600 297.753 C 301.960 297.753,300.932 297.818,302.316 297.897 M320.316 297.897 C 321.699 297.975,323.859 297.974,325.116 297.895 C 326.372 297.816,325.240 297.752,322.600 297.753 C 319.960 297.753,318.932 297.818,320.316 297.897 M338.716 297.897 C 340.099 297.975,342.259 297.974,343.516 297.895 C 344.772 297.816,343.640 297.752,341.000 297.753 C 338.360 297.753,337.332 297.818,338.716 297.897 M378.600 299.600 C 378.941 300.260,379.311 300.800,379.421 300.800 C 379.531 300.800,379.341 300.260,379.000 299.600 C 378.659 298.940,378.289 298.400,378.179 298.400 C 378.069 298.400,378.259 298.940,378.600 299.600 M36.181 302.100 L 34.600 303.800 36.300 302.219 C 37.881 300.748,38.184 300.400,37.881 300.400 C 37.816 300.400,37.051 301.165,36.181 302.100 M18.587 333.000 C 18.587 345.760,18.638 351.038,18.700 344.729 C 18.762 338.419,18.762 327.979,18.700 321.529 C 18.638 315.078,18.587 320.240,18.587 333.000 M333.600 318.200 C 334.346 318.970,335.047 319.600,335.157 319.600 C 335.267 319.600,334.746 318.970,334.000 318.200 C 333.254 317.430,332.553 316.800,332.443 316.800 C 332.333 316.800,332.854 317.430,333.600 318.200 M381.753 322.600 C 381.753 325.240,381.818 326.268,381.897 324.884 C 381.975 323.501,381.974 321.341,381.895 320.084 C 381.816 318.828,381.752 319.960,381.753 322.600 M66.705 319.083 C 67.202 319.179,67.922 319.175,68.305 319.075 C 68.687 318.975,68.280 318.896,67.400 318.901 C 66.520 318.905,66.207 318.987,66.705 319.083 M101.500 319.082 C 101.995 319.178,102.805 319.178,103.300 319.082 C 103.795 318.987,103.390 318.909,102.400 318.909 C 101.410 318.909,101.005 318.987,101.500 319.082 M136.300 319.082 C 136.795 319.178,137.605 319.178,138.100 319.082 C 138.595 318.987,138.190 318.909,137.200 318.909 C 136.210 318.909,135.805 318.987,136.300 319.082 M171.100 319.082 C 171.595 319.178,172.405 319.178,172.900 319.082 C 173.395 318.987,172.990 318.909,172.000 318.909 C 171.010 318.909,170.605 318.987,171.100 319.082 M206.300 319.082 C 206.795 319.178,207.605 319.178,208.100 319.082 C 208.595 318.987,208.190 318.909,207.200 318.909 C 206.210 318.909,205.805 318.987,206.300 319.082 M74.169 332.600 C 74.170 337.220,74.228 339.055,74.299 336.678 C 74.370 334.301,74.369 330.521,74.298 328.278 C 74.227 326.035,74.169 327.980,74.169 332.600 M165.370 332.800 C 165.370 337.530,165.428 339.465,165.498 337.100 C 165.569 334.735,165.569 330.865,165.498 328.500 C 165.428 326.135,165.370 328.070,165.370 332.800 M178.970 332.800 C 178.970 337.530,179.028 339.465,179.098 337.100 C 179.169 334.735,179.169 330.865,179.098 328.500 C 179.028 326.135,178.970 328.070,178.970 332.800 M200.168 332.600 C 200.168 337.000,200.226 338.855,200.298 336.721 C 200.370 334.588,200.370 330.988,200.299 328.721 C 200.227 326.455,200.168 328.200,200.168 332.600 M246.128 325.900 C 252.029 325.962,261.569 325.962,267.328 325.900 C 273.088 325.837,268.260 325.786,256.600 325.786 C 244.940 325.786,240.228 325.837,246.128 325.900 M298.134 332.800 C 298.134 334.450,298.205 335.125,298.291 334.300 C 298.378 333.475,298.378 332.125,298.291 331.300 C 298.205 330.475,298.134 331.150,298.134 332.800 M339.720 332.800 C 339.720 334.010,339.795 334.505,339.887 333.900 C 339.978 333.295,339.978 332.305,339.887 331.700 C 339.795 331.095,339.720 331.590,339.720 332.800 M228.093 332.800 C 228.093 333.570,228.175 333.885,228.276 333.500 C 228.376 333.115,228.376 332.485,228.276 332.100 C 228.175 331.715,228.093 332.030,228.093 332.800 M327.693 332.800 C 327.693 333.570,327.775 333.885,327.876 333.500 C 327.976 333.115,327.976 332.485,327.876 332.100 C 327.775 331.715,327.693 332.030,327.693 332.800 M95.324 338.200 C 95.326 339.520,95.401 340.012,95.490 339.293 C 95.579 338.574,95.577 337.494,95.486 336.893 C 95.395 336.292,95.322 336.880,95.324 338.200 M381.751 340.800 C 381.751 343.330,381.816 344.365,381.896 343.100 C 381.975 341.835,381.975 339.765,381.896 338.500 C 381.816 337.235,381.751 338.270,381.751 340.800 M66.705 346.683 C 67.202 346.779,67.922 346.775,68.305 346.675 C 68.687 346.575,68.280 346.496,67.400 346.501 C 66.520 346.505,66.207 346.587,66.705 346.683 M101.505 346.683 C 102.002 346.779,102.722 346.775,103.105 346.675 C 103.487 346.575,103.080 346.496,102.200 346.501 C 101.320 346.505,101.007 346.587,101.505 346.683 M136.500 346.676 C 136.885 346.776,137.515 346.776,137.900 346.676 C 138.285 346.575,137.970 346.493,137.200 346.493 C 136.430 346.493,136.115 346.575,136.500 346.676 M171.700 346.676 C 172.085 346.776,172.715 346.776,173.100 346.676 C 173.485 346.575,173.170 346.493,172.400 346.493 C 171.630 346.493,171.315 346.575,171.700 346.676 M206.500 346.676 C 206.885 346.776,207.515 346.776,207.900 346.676 C 208.285 346.575,207.970 346.493,207.200 346.493 C 206.430 346.493,206.115 346.575,206.500 346.676 M123.133 367.900 C 165.665 367.956,235.145 367.956,277.533 367.900 C 319.920 367.844,285.120 367.798,200.200 367.798 C 115.280 367.798,80.600 367.844,123.133 367.900 " stroke="none" fill="#6c6c6c" fill-rule="evenodd"></path><path id="path4" d="M381.720 116.000 C 381.720 117.210,381.795 117.705,381.887 117.100 C 381.978 116.495,381.978 115.505,381.887 114.900 C 381.795 114.295,381.720 114.790,381.720 116.000 M381.753 131.800 C 381.753 134.440,381.818 135.468,381.897 134.084 C 381.975 132.701,381.974 130.541,381.895 129.284 C 381.816 128.028,381.752 129.160,381.753 131.800 M38.716 130.297 C 40.099 130.375,42.259 130.374,43.516 130.295 C 44.772 130.216,43.640 130.152,41.000 130.153 C 38.360 130.153,37.332 130.218,38.716 130.297 M56.716 130.297 C 58.099 130.375,60.259 130.374,61.516 130.295 C 62.772 130.216,61.640 130.152,59.000 130.153 C 56.360 130.153,55.332 130.218,56.716 130.297 M75.116 130.297 C 76.499 130.375,78.659 130.374,79.916 130.295 C 81.172 130.216,80.040 130.152,77.400 130.153 C 74.760 130.153,73.732 130.218,75.116 130.297 M93.116 130.297 C 94.499 130.375,96.659 130.374,97.916 130.295 C 99.172 130.216,98.040 130.152,95.400 130.153 C 92.760 130.153,91.732 130.218,93.116 130.297 M111.300 130.296 C 112.565 130.375,114.635 130.375,115.900 130.296 C 117.165 130.216,116.130 130.151,113.600 130.151 C 111.070 130.151,110.035 130.216,111.300 130.296 M129.516 130.297 C 130.899 130.375,133.059 130.374,134.316 130.295 C 135.572 130.216,134.440 130.152,131.800 130.153 C 129.160 130.153,128.132 130.218,129.516 130.297 M147.700 130.296 C 148.965 130.375,151.035 130.375,152.300 130.296 C 153.565 130.216,152.530 130.151,150.000 130.151 C 147.470 130.151,146.435 130.216,147.700 130.296 M165.916 130.297 C 167.299 130.375,169.459 130.374,170.716 130.295 C 171.972 130.216,170.840 130.152,168.200 130.153 C 165.560 130.153,164.532 130.218,165.916 130.297 M184.100 130.296 C 185.365 130.375,187.435 130.375,188.700 130.296 C 189.965 130.216,188.930 130.151,186.400 130.151 C 183.870 130.151,182.835 130.216,184.100 130.296 M202.316 130.297 C 203.699 130.375,205.859 130.374,207.116 130.295 C 208.372 130.216,207.240 130.152,204.600 130.153 C 201.960 130.153,200.932 130.218,202.316 130.297 M220.316 130.297 C 221.699 130.375,223.859 130.374,225.116 130.295 C 226.372 130.216,225.240 130.152,222.600 130.153 C 219.960 130.153,218.932 130.218,220.316 130.297 M238.716 130.297 C 240.099 130.375,242.259 130.374,243.516 130.295 C 244.772 130.216,243.640 130.152,241.000 130.153 C 238.360 130.153,237.332 130.218,238.716 130.297 M256.716 130.297 C 258.099 130.375,260.259 130.374,261.516 130.295 C 262.772 130.216,261.640 130.152,259.000 130.153 C 256.360 130.153,255.332 130.218,256.716 130.297 M275.116 130.297 C 276.499 130.375,278.659 130.374,279.916 130.295 C 281.172 130.216,280.040 130.152,277.400 130.153 C 274.760 130.153,273.732 130.218,275.116 130.297 M293.116 130.297 C 294.499 130.375,296.659 130.374,297.916 130.295 C 299.172 130.216,298.040 130.152,295.400 130.153 C 292.760 130.153,291.732 130.218,293.116 130.297 M311.300 130.296 C 312.565 130.375,314.635 130.375,315.900 130.296 C 317.165 130.216,316.130 130.151,313.600 130.151 C 311.070 130.151,310.035 130.216,311.300 130.296 M329.516 130.297 C 330.899 130.375,333.059 130.374,334.316 130.295 C 335.572 130.216,334.440 130.152,331.800 130.153 C 329.160 130.153,328.132 130.218,329.516 130.297 M347.700 130.296 C 348.965 130.375,351.035 130.375,352.300 130.296 C 353.565 130.216,352.530 130.151,350.000 130.151 C 347.470 130.151,346.435 130.216,347.700 130.296 M365.497 130.283 L 367.595 130.442 367.701 158.921 L 367.808 187.400 367.804 158.800 L 367.800 130.200 365.600 130.162 L 363.400 130.124 365.497 130.283 M381.753 149.800 C 381.753 152.440,381.818 153.468,381.897 152.084 C 381.975 150.701,381.974 148.541,381.895 147.284 C 381.816 146.028,381.752 147.160,381.753 149.800 M144.167 165.400 C 144.167 169.580,144.226 171.236,144.298 169.079 C 144.371 166.923,144.370 163.503,144.298 161.479 C 144.225 159.456,144.166 161.220,144.167 165.400 M95.354 168.400 C 95.354 171.150,95.418 172.275,95.496 170.900 C 95.574 169.525,95.574 167.275,95.496 165.900 C 95.418 164.525,95.354 165.650,95.354 168.400 M381.753 168.200 C 381.753 170.840,381.818 171.868,381.897 170.484 C 381.975 169.101,381.974 166.941,381.895 165.684 C 381.816 164.428,381.752 165.560,381.753 168.200 M381.737 184.600 C 381.739 186.360,381.809 187.030,381.893 186.089 C 381.978 185.149,381.977 183.709,381.891 182.889 C 381.805 182.070,381.736 182.840,381.737 184.600 M367.787 248.600 C 367.787 260.700,367.837 265.708,367.900 259.728 C 367.962 253.749,367.962 243.849,367.900 237.728 C 367.838 231.608,367.787 236.500,367.787 248.600 M381.754 240.800 C 381.754 243.550,381.818 244.675,381.896 243.300 C 381.974 241.925,381.974 239.675,381.896 238.300 C 381.818 236.925,381.754 238.050,381.754 240.800 M95.320 243.200 C 95.320 244.410,95.395 244.905,95.487 244.300 C 95.578 243.695,95.578 242.705,95.487 242.100 C 95.395 241.495,95.320 241.990,95.320 243.200 M144.168 249.000 C 144.168 253.400,144.226 255.255,144.298 253.121 C 144.370 250.988,144.370 247.388,144.299 245.121 C 144.227 242.855,144.168 244.600,144.168 249.000 M381.753 259.000 C 381.753 261.640,381.818 262.668,381.897 261.284 C 381.975 259.901,381.974 257.741,381.895 256.484 C 381.816 255.228,381.752 256.360,381.753 259.000 M56.900 297.896 C 58.165 297.975,60.235 297.975,61.500 297.896 C 62.765 297.816,61.730 297.751,59.200 297.751 C 56.670 297.751,55.635 297.816,56.900 297.896 M74.900 297.896 C 76.165 297.975,78.235 297.975,79.500 297.896 C 80.765 297.816,79.730 297.751,77.200 297.751 C 74.670 297.751,73.635 297.816,74.900 297.896 M93.300 297.896 C 94.565 297.975,96.635 297.975,97.900 297.896 C 99.165 297.816,98.130 297.751,95.600 297.751 C 93.070 297.751,92.035 297.816,93.300 297.896 M111.300 297.896 C 112.565 297.975,114.635 297.975,115.900 297.896 C 117.165 297.816,116.130 297.751,113.600 297.751 C 111.070 297.751,110.035 297.816,111.300 297.896 M129.516 297.897 C 130.899 297.975,133.059 297.974,134.316 297.895 C 135.572 297.816,134.440 297.752,131.800 297.753 C 129.160 297.753,128.132 297.818,129.516 297.897 M147.700 297.896 C 148.965 297.975,151.035 297.975,152.300 297.896 C 153.565 297.816,152.530 297.751,150.000 297.751 C 147.470 297.751,146.435 297.816,147.700 297.896 M165.916 297.897 C 167.299 297.975,169.459 297.974,170.716 297.895 C 171.972 297.816,170.840 297.752,168.200 297.753 C 165.560 297.753,164.532 297.818,165.916 297.897 M184.100 297.896 C 185.365 297.975,187.435 297.975,188.700 297.896 C 189.965 297.816,188.930 297.751,186.400 297.751 C 183.870 297.751,182.835 297.816,184.100 297.896 M202.100 297.896 C 203.365 297.975,205.435 297.975,206.700 297.896 C 207.965 297.816,206.930 297.751,204.400 297.751 C 201.870 297.751,200.835 297.816,202.100 297.896 M220.500 297.896 C 221.765 297.975,223.835 297.975,225.100 297.896 C 226.365 297.816,225.330 297.751,222.800 297.751 C 220.270 297.751,219.235 297.816,220.500 297.896 M238.500 297.896 C 239.765 297.975,241.835 297.975,243.100 297.896 C 244.365 297.816,243.330 297.751,240.800 297.751 C 238.270 297.751,237.235 297.816,238.500 297.896 M256.900 297.896 C 258.165 297.975,260.235 297.975,261.500 297.896 C 262.765 297.816,261.730 297.751,259.200 297.751 C 256.670 297.751,255.635 297.816,256.900 297.896 M274.900 297.896 C 276.165 297.975,278.235 297.975,279.500 297.896 C 280.765 297.816,279.730 297.751,277.200 297.751 C 274.670 297.751,273.635 297.816,274.900 297.896 M293.300 297.896 C 294.565 297.975,296.635 297.975,297.900 297.896 C 299.165 297.816,298.130 297.751,295.600 297.751 C 293.070 297.751,292.035 297.816,293.300 297.896 M311.300 297.896 C 312.565 297.975,314.635 297.975,315.900 297.896 C 317.165 297.816,316.130 297.751,313.600 297.751 C 311.070 297.751,310.035 297.816,311.300 297.896 M329.516 297.897 C 330.899 297.975,333.059 297.974,334.316 297.895 C 335.572 297.816,334.440 297.752,331.800 297.753 C 329.160 297.753,328.132 297.818,329.516 297.897 M347.500 297.895 C 348.655 297.976,350.545 297.976,351.700 297.895 C 352.855 297.814,351.910 297.748,349.600 297.748 C 347.290 297.748,346.345 297.814,347.500 297.895 M381.746 314.200 C 381.747 316.400,381.814 317.249,381.895 316.087 C 381.976 314.924,381.976 313.124,381.893 312.087 C 381.811 311.049,381.745 312.000,381.746 314.200 M367.787 332.600 C 367.787 344.700,367.837 349.708,367.900 343.728 C 367.962 337.749,367.962 327.849,367.900 321.728 C 367.838 315.608,367.787 320.500,367.787 332.600 M318.305 311.883 C 318.802 311.979,319.522 311.975,319.905 311.875 C 320.287 311.775,319.880 311.696,319.000 311.701 C 318.120 311.705,317.807 311.787,318.305 311.883 M144.166 332.800 C 144.166 336.870,144.225 338.535,144.298 336.500 C 144.371 334.465,144.371 331.135,144.298 329.100 C 144.225 327.065,144.166 328.730,144.166 332.800 M95.351 331.600 C 95.351 334.130,95.416 335.165,95.496 333.900 C 95.575 332.635,95.575 330.565,95.496 329.300 C 95.416 328.035,95.351 329.070,95.351 331.600 M381.753 331.800 C 381.753 334.440,381.818 335.468,381.897 334.084 C 381.975 332.701,381.974 330.541,381.895 329.284 C 381.816 328.028,381.752 329.160,381.753 331.800 M238.716 339.897 C 240.099 339.975,242.259 339.974,243.516 339.895 C 244.772 339.816,243.640 339.752,241.000 339.753 C 238.360 339.753,237.332 339.818,238.716 339.897 M256.716 339.897 C 258.099 339.975,260.259 339.974,261.516 339.895 C 262.772 339.816,261.640 339.752,259.000 339.753 C 256.360 339.753,255.332 339.818,256.716 339.897 M273.900 339.889 C 274.615 339.978,275.785 339.978,276.500 339.889 C 277.215 339.801,276.630 339.728,275.200 339.728 C 273.770 339.728,273.185 339.801,273.900 339.889 M381.757 350.400 C 381.757 353.370,381.820 354.585,381.897 353.100 C 381.974 351.615,381.974 349.185,381.897 347.700 C 381.820 346.215,381.757 347.430,381.757 350.400 " stroke="none" fill="#747474" fill-rule="evenodd"></path></g></svg>