<?xml version="1.0" standalone="no"?>
<!DOCTYPE svg PUBLIC "-//W3C//DTD SVG 20010904//EN"
 "http://www.w3.org/TR/2001/REC-SVG-20010904/DTD/svg10.dtd">
<svg version="1.0" xmlns="http://www.w3.org/2000/svg"
 width="512.000000pt" height="512.000000pt" viewBox="0 0 512.000000 512.000000"
 preserveAspectRatio="xMidYMid meet">

<g transform="translate(0.000000,512.000000) scale(0.100000,-0.100000)"
fill="#000000" stroke="none">
<path d="M2285 4999 c-1078 -58 -1975 -880 -2146 -1966 -30 -192 -30 -502 -1
-688 121 -760 573 -1385 1249 -1728 335 -170 661 -247 1041 -247 275 0 498 35
741 116 489 163 915 491 1206 929 122 184 244 458 300 671 66 253 92 582 66
835 -28 274 -104 538 -225 784 -224 456 -582 819 -1031 1047 -378 192 -760
271 -1200 247z m154 -1313 c50 -26 51 -35 51 -501 l0 -435 436 0 c389 0 439
-2 464 -17 77 -45 68 -154 -15 -189 -28 -11 -115 -14 -460 -14 l-425 0 0 -441
0 -441 -29 -28 c-16 -16 -40 -32 -55 -36 -33 -8 -81 11 -106 44 -19 24 -20 42
-20 463 l0 439 -425 0 c-345 0 -432 3 -460 14 -83 35 -92 144 -15 189 25 15
75 17 464 17 l436 0 0 438 c1 343 4 442 14 461 26 48 91 64 145 37z"/>
</g>
</svg>
