<?xml version="1.0" standalone="no"?>
<!DOCTYPE svg PUBLIC "-//W3C//DTD SVG 20010904//EN"
 "http://www.w3.org/TR/2001/REC-SVG-20010904/DTD/svg10.dtd">
<svg version="1.0" xmlns="http://www.w3.org/2000/svg"
 width="693.000000pt" height="525.000000pt" viewBox="0 0 693.000000 525.000000"
 preserveAspectRatio="xMidYMid meet">
<metadata>
Created by potrace 1.16, written by Peter Selinger 2001-2019
</metadata>
<g transform="translate(0.000000,525.000000) scale(0.100000,-0.100000)"
fill="#000000" stroke="none">
<path d="M4775 4838 c29 -101 67 -238 86 -305 19 -68 36 -123 39 -123 3 0 14
14 23 30 10 17 21 30 25 30 4 0 79 -140 167 -310 l160 -311 16 66 c10 37 19
68 21 70 1 2 53 -66 113 -151 123 -171 117 -168 192 -107 l42 35 -15 36 c-9
21 -23 54 -32 75 -8 20 -18 37 -22 37 -3 0 -11 -17 -16 -37 -5 -21 -13 -37
-19 -36 -5 1 -82 139 -170 306 l-160 305 -3 -70 -3 -71 -22 31 c-12 17 -121
177 -242 356 -121 179 -223 325 -226 325 -3 1 18 -81 46 -181z"/>
<path d="M3746 4345 c-51 -18 -333 -298 -371 -367 -24 -44 -26 -53 -19 -131 6
-83 6 -84 -25 -120 -65 -73 -159 -110 -322 -125 -130 -12 -169 -40 -169 -121
0 -41 11 -45 31 -12 20 33 72 47 133 36 l36 -7 -41 -21 c-83 -41 -125 -140
-96 -224 17 -49 13 -53 -61 -53 -68 0 -213 -25 -287 -50 -61 -20 -175 -86
-189 -109 -5 -8 21 -11 86 -12 l93 -2 -100 -8 c-113 -9 -261 -39 -364 -74 -64
-22 -152 -72 -166 -95 -7 -12 79 -56 170 -87 l70 -24 -55 5 c-40 3 -79 17
-143 50 -86 45 -89 46 -181 46 -63 0 -106 -5 -132 -16 l-39 -16 46 -17 c97
-37 152 -104 169 -204 11 -67 -3 -177 -29 -229 -18 -36 -17 -37 3 -42 12 -3
60 -6 107 -6 117 0 224 32 419 125 138 65 214 95 245 95 6 0 -27 -18 -72 -40
-46 -23 -83 -45 -83 -49 0 -15 133 -43 230 -48 68 -4 112 -1 155 10 32 9 61
14 64 12 6 -7 -77 -42 -131 -55 -27 -7 -48 -17 -48 -24 0 -51 104 -240 187
-341 100 -122 323 -264 451 -287 190 -35 416 82 576 296 39 53 36 66 -14 66
-83 0 -244 67 -368 152 -78 54 -274 241 -373 357 l-56 65 -30 -22 c-41 -29
-148 -82 -165 -82 -7 1 5 10 27 21 70 36 113 70 149 117 l36 45 -51 29 c-28
16 -71 45 -97 65 -53 41 -118 72 -156 75 -27 2 -37 18 -11 18 33 0 112 -35
203 -90 112 -67 171 -87 297 -98 l90 -8 -59 -9 c-34 -4 -87 -4 -123 2 -56 8
-65 7 -73 -7 -9 -17 20 -56 155 -209 53 -59 227 -212 285 -249 105 -67 237
-118 356 -137 l41 -6 40 88 c35 75 63 154 87 248 2 11 2 -7 -1 -40 -25 -295
-168 -529 -427 -701 l-88 -58 61 -28 c65 -29 154 -88 146 -96 -2 -3 -10 0 -17
5 -36 28 -294 117 -433 148 -98 23 -194 72 -303 154 -50 39 -97 71 -102 71 -6
0 -10 -13 -10 -29 0 -31 37 -68 180 -183 34 -27 107 -112 191 -224 114 -151
146 -186 204 -226 65 -45 79 -64 25 -33 -14 8 -28 14 -31 15 -3 0 -4 -35 -1
-77 3 -49 1 -74 -5 -68 -5 6 -31 38 -57 72 -48 62 -136 133 -123 99 17 -43 38
-128 34 -132 -4 -5 -139 48 -287 111 -161 70 -423 176 -426 173 -2 -2 162
-107 364 -233 202 -125 390 -243 417 -261 28 -17 104 -65 170 -106 66 -41 134
-83 150 -93 20 -13 26 -15 19 -5 -6 8 -44 60 -86 115 -103 138 -100 129 -42
121 27 -4 57 -9 67 -12 40 -12 11 14 -67 61 -46 28 -83 51 -82 53 5 4 361
-120 374 -131 7 -5 34 -41 59 -79 25 -37 48 -68 50 -68 12 0 -54 339 -70 362
-7 9 -41 50 -77 90 -75 85 -65 78 85 -53 l110 -96 43 -179 c52 -218 53 -224
48 -224 -3 0 -48 20 -206 92 -193 89 -230 104 -215 90 10 -9 281 -199 335
-234 14 -9 63 -43 110 -77 170 -120 221 -154 225 -149 3 3 -9 35 -25 72 -17
38 -29 70 -27 72 2 3 38 -21 78 -52 307 -234 310 -236 457 -302 79 -35 145
-62 147 -60 3 3 -250 356 -363 508 l-34 45 7 -107 c4 -60 5 -108 1 -108 -4 0
-55 42 -115 92 -77 65 -147 114 -235 162 -70 38 -125 70 -123 72 1 2 63 -13
137 -32 131 -35 137 -37 187 -87 29 -28 54 -49 57 -46 7 7 -181 577 -204 616
l-22 38 42 -40 c37 -36 61 -75 160 -260 58 -109 141 -255 145 -255 2 0 16 20
32 45 15 25 30 45 33 45 3 -1 23 -39 44 -86 45 -96 52 -95 65 11 4 35 10 67
13 70 5 5 309 -199 451 -303 26 -19 50 -33 52 -30 2 2 -64 104 -146 227 -83
122 -149 224 -147 226 2 2 34 -3 72 -11 38 -8 71 -12 74 -10 2 3 -24 36 -60
73 -35 37 -101 110 -146 161 -45 51 -82 90 -82 87 0 -4 23 -48 50 -99 28 -51
50 -96 50 -100 0 -4 -18 -5 -40 -1 l-39 7 19 -58 c11 -31 19 -58 18 -60 -2 -1
-32 14 -66 33 -55 31 -63 38 -56 57 4 11 9 93 11 181 l4 161 -98 99 c-78 80
-110 121 -155 203 -65 118 -52 120 16 4 24 -43 59 -91 78 -109 57 -54 163
-132 169 -125 3 4 14 69 23 145 19 145 15 223 -20 388 -9 45 -11 99 -7 166 5
90 4 103 -20 162 -24 59 -25 66 -11 92 31 60 12 123 -71 235 -36 48 -65 95
-65 106 0 19 33 56 92 105 25 21 28 21 75 6 26 -8 78 -14 115 -14 l68 1 30
-41 c30 -42 39 -92 20 -104 -11 -7 -4 -25 10 -25 17 0 40 58 40 100 0 23 -7
54 -15 70 -14 28 -14 29 14 35 63 14 146 -46 157 -114 7 -46 24 -56 24 -13 -1
39 -24 97 -54 136 -38 50 -140 98 -200 95 -25 -2 -48 0 -52 4 -8 7 25 11 63 8
13 -1 37 6 55 15 59 30 147 99 148 115 0 30 -27 104 -53 147 -24 37 -31 42
-55 36 -25 -6 -26 -5 -8 8 18 14 17 16 -15 41 -19 15 -29 27 -23 27 6 0 31
-18 55 -39 52 -46 99 -133 107 -196 2 -25 8 -45 13 -45 19 0 239 224 239 243
0 33 -42 107 -82 143 -38 34 -80 44 -94 23 -11 -18 -189 -99 -217 -99 -14 0
-30 -6 -34 -13 -5 -8 -51 -20 -113 -30 -98 -15 -106 -15 -114 1 -19 34 -102
116 -146 144 -24 15 -108 48 -186 73 -191 60 -190 60 -196 182 -6 110 -32 188
-89 268 -29 40 -34 55 -35 108 -1 86 0 82 -36 123 -50 57 -138 94 -221 94 -47
0 -79 6 -105 19 -54 28 -101 33 -146 16z m157 -55 c28 -17 54 -44 64 -65 20
-43 37 -46 31 -5 -5 35 13 40 50 14 13 -9 25 -14 28 -11 5 5 -26 31 -62 53
-32 20 70 -3 114 -25 21 -11 53 -36 70 -56 49 -55 41 -103 -28 -162 l-37 -33
5 50 c4 46 -5 127 -13 118 -2 -2 -7 -33 -11 -68 -7 -69 -20 -105 -50 -131 -17
-15 -78 -49 -87 -49 -2 0 -38 45 -80 99 -86 112 -121 141 -167 141 -29 0 -90
-24 -90 -35 0 -3 17 -2 39 1 56 9 123 -33 158 -99 18 -36 14 -41 -23 -27 -15
6 -40 8 -54 5 -24 -7 -23 -8 15 -24 69 -27 132 -69 164 -108 44 -53 30 -53
-28 -1 -51 46 -120 84 -169 94 -31 6 -113 -48 -227 -150 -60 -54 -68 -58 -90
-48 -14 7 -25 17 -25 24 0 9 3 9 12 0 20 -20 43 -14 79 24 44 47 188 164 201
164 6 0 7 7 4 16 -3 9 3 27 14 41 11 14 18 29 15 33 -5 8 -60 4 -76 -5 -5 -4
-9 -1 -9 5 0 25 -31 1 -89 -69 -34 -40 -76 -93 -93 -117 -17 -24 -35 -44 -40
-44 -5 0 -15 15 -23 34 -27 64 -9 93 163 266 87 87 166 162 177 168 11 6 43
12 71 12 39 0 61 -7 97 -30z m333 -256 c-3 -9 -6 -20 -6 -25 0 -5 -6 -9 -14
-9 -8 0 -16 -14 -18 -32 -4 -25 1 -37 22 -58 15 -15 31 -37 35 -50 10 -30 23
-13 27 35 l3 40 22 -65 c12 -36 26 -90 32 -120 5 -31 13 -69 17 -85 l7 -30
-22 19 c-28 25 -27 8 2 -35 29 -43 102 -80 230 -114 56 -15 127 -40 157 -55
128 -65 211 -208 236 -410 9 -71 19 -90 95 -174 56 -63 97 -131 86 -143 -3 -2
-13 9 -23 25 -11 16 -52 57 -93 92 -78 67 -123 141 -136 225 l-6 40 20 -24
c18 -20 21 -21 21 -5 0 35 -43 104 -92 149 -59 53 -126 86 -302 150 -148 53
-190 73 -235 111 -47 40 -64 78 -56 130 4 29 2 44 -4 44 -16 0 -13 59 4 116
19 64 20 58 -21 104 -32 35 -42 40 -80 40 -47 0 -81 -12 -134 -48 l-35 -24 35
31 c19 17 63 46 98 63 59 30 112 77 112 99 0 5 5 9 11 9 6 0 8 -7 5 -16z
m-734 -441 c6 -13 32 -33 57 -45 25 -11 48 -23 50 -24 2 -2 -11 -25 -28 -52
-20 -32 -31 -61 -30 -83 l1 -34 11 26 12 27 38 -44 c36 -42 37 -45 23 -71 -8
-16 -17 -51 -20 -78 -4 -28 -9 -66 -12 -85 l-6 -35 -15 29 c-9 17 -13 47 -11
76 1 27 0 46 -4 43 -5 -2 -8 -11 -8 -19 0 -8 -4 -14 -10 -14 -13 0 -23 64 -15
92 7 20 6 21 -8 10 -13 -11 -17 -4 -28 58 -13 75 -29 77 -27 4 1 -55 -23 -97
-95 -165 l-61 -58 -29 17 c-31 18 -87 77 -87 92 0 5 16 2 35 -6 42 -17 88 -17
135 1 l35 13 -39 1 -39 1 44 39 c25 21 58 63 73 92 l29 52 -6 137 c-7 144 3
196 16 88 4 -34 12 -73 19 -85z m-91 18 c25 -35 12 -82 -42 -151 -49 -62 -19
-52 36 12 l37 43 -7 -35 c-14 -71 -138 -219 -172 -206 -8 3 -26 9 -39 12 -20
5 -24 13 -24 43 -1 34 -2 35 -15 17 -18 -23 -20 -79 -4 -108 11 -20 11 -20
-21 -2 -18 11 -52 36 -76 57 -24 21 -44 34 -44 29 0 -23 81 -95 150 -133 81
-44 154 -109 201 -176 16 -23 29 -44 29 -47 0 -3 -20 8 -44 24 -24 17 -96 50
-160 75 -153 59 -189 78 -235 124 -66 66 -66 134 1 208 42 45 127 81 161 67
23 -9 98 38 140 87 20 22 48 65 64 95 l28 54 8 -31 c5 -17 17 -43 28 -58z
m423 -121 c7 0 25 -9 39 -20 14 -11 35 -20 46 -20 32 0 91 42 91 65 0 17 2 17
10 5 15 -23 13 -27 -37 -61 l-47 -33 56 -18 c30 -10 73 -34 95 -53 43 -36 57
-72 69 -170 10 -91 25 -103 22 -17 -2 39 0 72 5 72 23 0 62 -100 87 -224 7
-32 27 -87 45 -122 19 -35 30 -64 26 -64 -4 0 -35 23 -70 51 -35 28 -66 48
-69 45 -11 -11 53 -67 132 -116 l79 -49 -39 -3 -39 -3 66 -32 c104 -51 153
-112 274 -340 22 -40 49 -84 62 -98 13 -14 19 -25 14 -25 -20 0 -97 67 -155
136 -78 91 -146 124 -331 159 -107 21 -189 68 -281 164 -41 41 -74 72 -74 68
0 -18 62 -97 112 -142 49 -45 51 -48 23 -41 -109 26 -223 107 -291 206 -53 79
-67 79 -34 1 25 -57 105 -138 169 -171 48 -24 75 -71 91 -163 9 -44 7 -63 -9
-113 l-19 -59 -1 42 c-2 86 -31 124 -177 233 -117 87 -154 140 -154 221 l0 58
56 28 c72 35 124 92 124 136 l-1 32 -19 -35 c-35 -67 -84 -103 -178 -130 -52
-16 -60 -10 -34 27 42 59 56 112 67 243 6 76 18 113 55 164 34 46 94 76 185
91 l39 7 -53 33 c-67 43 -64 39 -55 67 8 23 9 23 12 -4 2 -16 9 -28 16 -28z
m401 31 c11 -35 77 -83 180 -131 65 -31 105 -56 113 -71 15 -28 33 -89 26 -89
-20 0 -154 79 -189 111 -24 22 -46 36 -49 31 -10 -17 66 -82 152 -128 103 -56
165 -112 197 -175 28 -55 40 -129 28 -182 l-8 -37 -35 47 c-21 29 -70 72 -120
105 -82 56 -137 106 -172 158 -12 17 -17 20 -17 9 -2 -32 59 -108 128 -159 45
-33 71 -60 71 -72 0 -21 0 -22 -75 30 -50 34 -49 34 17 -29 65 -63 67 -65 72
-124 4 -50 -8 -145 -20 -145 -1 0 -24 19 -50 43 -101 91 -171 215 -200 354
-20 100 -43 151 -83 188 -46 42 -100 151 -58 117 11 -9 12 0 9 47 -3 45 -1 59
11 64 10 4 18 -6 26 -34 7 -21 17 -39 23 -39 7 0 7 4 -1 13 -16 20 -19 58 -9
90 12 32 24 35 33 8z m456 -388 c20 -21 53 -63 74 -93 56 -80 105 -130 146
-149 35 -16 99 -65 99 -75 0 -12 -67 -5 -115 12 -28 10 -76 37 -106 61 -54 42
-56 46 -68 110 -13 68 -36 115 -80 165 -41 45 6 16 50 -31z m-1133 -16 c38
-72 38 -77 12 -136 l-20 -44 -41 63 c-23 34 -43 79 -46 100 -4 31 -1 40 22 58
15 12 30 22 34 22 3 0 21 -28 39 -63z m-404 -59 c34 -12 65 -24 69 -28 14 -12
-28 -84 -70 -120 l-38 -34 -5 80 c-3 43 -12 89 -18 102 -16 27 -14 27 62 0z
m1453 -150 c27 -29 49 -87 62 -160 12 -68 30 -105 86 -178 59 -76 79 -117 34
-69 -19 20 -60 58 -92 84 -76 63 -105 113 -117 206 -12 92 -12 139 -2 139 5 0
18 -10 29 -22z m-350 -376 c25 -6 72 -32 115 -64 40 -30 94 -69 119 -86 49
-33 82 -78 98 -137 l10 -36 -48 43 c-32 29 -92 63 -181 103 -116 53 -139 67
-186 118 -30 32 -54 64 -54 71 0 14 22 12 127 -12z"/>
<path d="M3804 3344 c-22 -37 -28 -63 -32 -128 -3 -49 -12 -97 -23 -121 l-19
-40 26 29 c14 15 28 41 31 58 4 22 10 27 22 23 43 -17 71 -17 77 -1 8 20 40
21 48 1 7 -20 60 -19 81 1 9 9 14 23 11 31 -3 8 -6 32 -6 54 0 34 -5 42 -32
59 -18 11 -28 20 -21 20 7 0 24 -10 39 -23 22 -20 27 -34 34 -97 4 -41 14 -90
24 -108 21 -40 98 -122 115 -122 8 0 -4 17 -26 38 -28 27 -44 55 -57 98 -9 32
-22 69 -27 82 -5 13 -9 37 -9 55 0 33 -46 144 -56 134 -3 -3 -1 -15 6 -26 6
-12 7 -21 2 -21 -22 0 -82 31 -82 43 -1 8 -5 7 -13 -3 -11 -14 -97 -54 -97
-45 0 2 4 15 10 29 15 40 4 31 -26 -20z"/>
<path d="M3990 3004 c0 -24 80 -133 131 -176 30 -25 108 -83 174 -128 157
-108 261 -196 313 -264 35 -45 38 -23 4 27 -46 66 -125 134 -273 232 -128 86
-246 189 -317 280 -17 22 -31 35 -32 29z"/>
<path d="M5655 3738 c-51 -41 -56 -49 -43 -66 9 -11 7 -11 -14 -2 -20 10 -31
9 -57 -4 -40 -21 -57 -50 -66 -108 -3 -26 -13 -55 -22 -63 -14 -15 -14 -17 3
-30 11 -8 22 -15 27 -15 21 -1 35 -20 74 -103 14 -30 22 -36 38 -32 11 4 45
12 75 19 63 15 110 35 110 48 0 5 -16 18 -35 29 -19 12 -38 31 -41 43 -3 12
-15 26 -27 31 -12 6 -28 25 -36 43 -14 31 -39 47 -27 17 8 -23 -1 -18 -22 13
l-20 27 34 0 c31 0 36 -3 45 -37 15 -57 39 -50 39 12 0 48 -5 57 -43 83 -17
12 -15 13 17 13 20 0 31 -3 25 -7 -8 -4 -6 -14 5 -31 9 -14 13 -28 9 -31 -10
-10 5 -8 30 4 l22 10 -22 -19 c-18 -16 -28 -52 -24 -86 1 -4 13 0 29 9 l27 18
-24 -26 c-24 -27 -23 -53 3 -63 8 -3 42 13 75 35 65 45 73 48 65 28 -3 -8 2
-19 10 -26 12 -10 15 -8 21 8 14 45 12 60 -16 102 -16 24 -29 51 -29 60 0 9
-7 22 -16 29 -8 8 -21 28 -29 47 -26 62 -107 72 -170 21z"/>
<path d="M5835 3464 c-11 -9 -28 -22 -39 -29 -17 -12 -10 -27 115 -237 191
-323 259 -437 288 -487 l25 -45 11 27 c10 25 17 15 130 -196 65 -122 129 -240
141 -261 l23 -39 22 46 c13 26 25 47 28 47 4 0 75 -88 160 -195 85 -107 156
-195 158 -195 5 0 -32 85 -92 214 -8 17 -68 150 -133 296 -144 324 -141 318
-143 263 -1 -24 -3 -47 -4 -53 -1 -5 -3 -26 -4 -45 0 -19 -4 -35 -9 -35 -4 0
-26 37 -49 83 -36 70 -96 185 -240 462 -25 47 -27 49 -34 25 -4 -14 -7 -49 -8
-77 -1 -29 -4 -53 -8 -53 -8 1 -212 293 -208 298 1 1 22 -2 46 -7 24 -5 44 -9
46 -8 4 5 -181 212 -191 214 -6 2 -20 -4 -31 -13z"/>
<path d="M1372 2795 c-17 -8 -41 -29 -52 -48 -23 -39 -208 -167 -241 -167 -29
0 -59 -18 -59 -36 0 -22 -34 -31 -168 -42 -132 -11 -176 -6 -319 37 -122 36
-147 32 -341 -61 -95 -45 -172 -87 -172 -94 0 -6 9 -19 21 -30 27 -24 109 -26
164 -3 22 9 70 29 106 43 l65 27 60 -27 c46 -21 75 -27 131 -28 40 0 67 -4 60
-8 -20 -13 -131 -9 -181 6 -43 13 -52 13 -102 -4 -30 -11 -82 -31 -115 -46
l-61 -28 -54 -109 c-65 -132 -67 -147 -20 -147 48 0 87 37 126 118 l33 68 84
21 c98 23 97 15 -2 -20 -70 -25 -70 -25 -93 -83 -27 -68 -63 -109 -108 -126
-24 -8 -35 -20 -43 -48 -14 -49 -14 -57 5 -64 44 -17 133 71 177 176 8 18 29
41 48 52 l34 19 -27 -29 c-31 -33 -79 -152 -73 -180 2 -11 7 -36 10 -56 7 -45
22 -48 62 -14 23 20 28 33 29 74 1 32 11 65 27 93 13 24 29 53 35 63 6 12 33
25 78 37 65 16 72 16 119 1 52 -18 272 -24 308 -10 17 7 17 10 -3 47 -11 22
-24 42 -30 46 -5 3 -10 11 -10 17 0 7 15 -8 33 -32 60 -82 99 -119 133 -132
34 -12 34 -12 34 -76 0 -53 3 -63 15 -58 23 9 18 -8 -11 -35 -39 -36 -55 -80
-44 -120 14 -49 29 -52 70 -15 20 18 51 41 68 52 34 20 39 28 47 89 3 22 10
60 16 85 12 57 14 118 5 200 -6 54 -3 72 13 105 18 36 20 37 15 10 -3 -16 -8
-38 -11 -47 -6 -25 14 -22 41 5 28 28 33 104 11 166 -17 49 -13 65 10 35 27
-35 33 -137 11 -186 -7 -14 -3 -15 31 -7 21 5 81 9 134 9 81 0 100 3 122 20
36 29 67 83 82 143 16 64 19 27 4 -43 -12 -54 -55 -114 -90 -125 -26 -9 -14
-25 19 -25 48 0 103 41 131 95 23 43 26 63 26 145 0 115 -20 166 -89 232 -80
77 -243 112 -334 73z"/>
<path d="M4995 609 c47 -148 50 -152 121 -214 146 -125 236 -200 246 -204 5
-2 -9 25 -31 60 -23 35 -72 112 -109 170 -61 98 -74 111 -145 158 -42 28 -80
51 -83 51 -3 0 -2 -9 1 -21z"/>
</g>
</svg>
